<?xml version="1.0" encoding="utf-8"?>
<!-- Generator: Adobe Illustrator 16.0.4, SVG Export Plug-In . SVG Version: 6.00 Build 0)  -->
<!DOCTYPE svg PUBLIC "-//W3C//DTD SVG 1.1//EN" "http://www.w3.org/Graphics/SVG/1.1/DTD/svg11.dtd">
<svg version="1.1" id="Layer_1" xmlns="http://www.w3.org/2000/svg" xmlns:xlink="http://www.w3.org/1999/xlink" x="0px" y="0px"
	 width="595.28px" height="841.89px" viewBox="0 0 595.28 841.89" enable-background="new 0 0 595.28 841.89" xml:space="preserve">
<path fill="none" stroke="#E01F30" stroke-miterlimit="10" d="M309.623,483.329l-2.134-0.156c-1.442-0.105-2.573-1.28-2.626-2.725
	l-0.507-14.056l-0.829,0.552c-0.469,0.312-1.016,0.475-1.57,0.475c-0.188,0-0.378-0.02-0.564-0.058l-2.524-0.513
	c-0.176,0.572-0.53,1.082-1.022,1.446l-1.92,1.423c-0.496,0.368-1.09,0.558-1.688,0.558c-0.39,0-0.781-0.08-1.149-0.244l-3.49-1.548
	c-0.976-0.433-1.626-1.377-1.682-2.443l-0.076-1.47l-1.635-0.339l-0.031,9.192c-0.005,1.367-0.984,2.536-2.329,2.779l-4.408,0.799
	c-0.168,0.03-0.337,0.046-0.506,0.046c-0.366,0-0.731-0.071-1.073-0.211l-1.537-0.629c-1.054-0.432-1.747-1.45-1.761-2.588
	l-0.146-11.472l-3.037-0.687l-0.034,17.6c-0.003,1.311-0.904,2.449-2.18,2.752l-4.358,1.035c-0.218,0.052-0.438,0.077-0.655,0.077
	c-0.771,0-1.521-0.315-2.063-0.892l-2.152-2.285c-0.495-0.525-0.771-1.221-0.771-1.943v-18.461l-1.921-0.314
	c-1.371-0.225-2.377-1.409-2.377-2.798v-10.376c0-0.212,0.024-0.423,0.071-0.629l0.171-0.751c0.08-0.353,0.227-0.687,0.433-0.983
	l1.283-1.855l0.004,0.003c0.118-0.171,0.253-0.332,0.391-0.466c0.052-0.051,0.106-0.101,0.163-0.148
	c-6.42-5.489-8.137-13.591-8.992-17.626c-1.954-9.27-7.896-37.448,22.613-56.353c1.572-1.169,2.538-1.727,3.676-1.727
	c1.725,0,2.693,1.301,3.272,2.079c0.076,0.102,0.173,0.233,0.271,0.358c0.911-0.763,2.368-2.502,3.215-3.513
	c2.006-2.393,3.03-3.562,4.404-3.961c0.134-0.038,0.362-0.141,0.584-0.24c0.916-0.411,2.3-1.033,4.474-1.033
	c1.644,0,2.562,1.094,4.085,2.906c0.583,0.694,1.746,2.079,2.64,2.859c1.721-3.799,4.584-4.413,6.25-4.413
	c0.753,0,1.385,0.115,1.803,0.191l0.182,0.032c0.156,0.008,0.317,0.029,0.465,0.061c1.359,0.297,6.699,3.489,9.167,5.627
	c0.456,0.395,0.849,0.747,1.197,1.059c0.104,0.095,0.203,0.182,0.294,0.264c0.733-1.613,2.123-2.25,3.343-2.483
	c0.175-0.033,0.353-0.05,0.53-0.05c0.103,0,0.227,0.005,0.328,0.017c10.389,1.128,18.879,6.56,24.553,15.708
	c8.019,12.931,8.629,30.016,5.131,39.526c-0.257,0.779-0.386,1.761-0.439,2.367c0.078,0.223,0.128,0.454,0.149,0.689l0.161,1.797
	c0.013,0.146,0.015,0.292,0.005,0.438l-0.641,9.774c0.002,0.008,0.146,0.767,0.146,0.767c0.039,0.207,0.055,0.417,0.048,0.628
	l-0.022,0.631l0.201,1.961c0.007,0.073,0.012,0.146,0.014,0.219l0.378,15.215c0.014,0.55-0.134,1.093-0.423,1.561l-2.397,3.878
	c-0.519,0.84-1.434,1.345-2.41,1.345c-0.067,0-0.136-0.003-0.203-0.008l-2.131-0.152c-1.444-0.103-2.578-1.277-2.631-2.725
	l-0.529-14.616l-0.157,0.112l-0.007,0.242l0.089,2.045l0.383,15.269c0.008,0.305-0.034,0.608-0.123,0.899l-0.837,2.74
	c-0.286,0.937-1.034,1.658-1.98,1.911l-3.794,1.012c-0.241,0.063-0.486,0.096-0.73,0.096c-0.601,0-1.191-0.191-1.685-0.556
	c-0.693-0.512-1.116-1.312-1.148-2.174l-0.553-14.821l-1.1,0.712l-0.028,0.852l0.034,1.184l0.38,15.233
	c0.008,0.303-0.034,0.605-0.122,0.896l-0.836,2.744c-0.271,0.889-0.961,1.589-1.846,1.873l-4.707,1.51
	c-0.283,0.091-0.575,0.136-0.866,0.136c-0.575,0-1.145-0.176-1.627-0.514c-0.727-0.51-1.173-1.329-1.206-2.215l-0.557-14.852
	l-1.182,0.72l-0.008,1.579l0.373,15.13c0.016,0.663-0.201,1.311-0.613,1.831l-3.636,4.585c-0.539,0.681-1.359,1.073-2.221,1.073
	C309.762,483.337,309.692,483.334,309.623,483.329z"/>
</svg>
