<?xml version="1.0" encoding="utf-8"?>
<!-- Generator: Adobe Illustrator 19.0.0, SVG Export Plug-In . SVG Version: 6.00 Build 0)  -->
<svg version="1.2" baseProfile="tiny" id="Layer_1" xmlns="http://www.w3.org/2000/svg" xmlns:xlink="http://www.w3.org/1999/xlink"
	 x="0px" y="0px" viewBox="0 0 200 347" xml:space="preserve">
<rect id="XMLID_81_" fill="#E01F30" width="200" height="347"/>
<g id="XMLID_1_">
	<path id="XMLID_76_" fill="#FFFFFF" d="M162.9,138.1l-0.1-1.1c0-0.8,0-1.5-0.1-2.3l0.5-8.2c0.1-1.1,0-2.1-0.1-3.2
		c3.9-12.4,3.4-32.9-6.9-49.5c-7.9-12.8-19.8-20.3-34.4-21.9c-1.5-0.2-3-0.1-4.4,0.1c-6.1-3.2-11.3-4.4-12-4.5c-2-0.4-4-0.5-6-0.2
		c-0.1,0-0.2-0.1-0.3-0.1c-3.2-1-6.2-1.5-9-1.5c-4.9,0-8.2,1.4-9.8,2.1c-2.2,0.8-4.5,2.2-6.9,4.2c-5.3,0.1-9.2,2.9-10.8,4
		c-25.1,15.8-34.6,39.4-28.1,70.1c0.7,3.4,2.2,10.3,6.4,17c-0.2,0.9-0.2,1.8-0.2,2.7v10.4c0,4.1,1.5,8,4.3,11v10.6
		c0,4.1,1.6,8,4.4,11.1l2.2,2.3c3,3.2,7.3,5.1,11.8,5.1c3.4,0,6.6-1,9.4-3l1.9-1.3c0.7-0.5,1.3-1,1.9-1.6c4.5,0.4,9-1,12.4-4
		l1.5-1.4c0.3-0.2,0.5-0.5,0.8-0.7c1.6,6.7,7.4,11.8,14.5,12.3l2.1,0.2c0.4,0,0.8,0,1.2,0c5.5,0,10.5-2.7,13.4-7.2
		c5.4-0.2,10.4-3.2,13.2-7.8c5.3-0.5,10-3.5,12.6-8c6.3-0.7,11.7-5.1,13.6-11.3l0.8-2.8c0.5-1.7,0.7-3.4,0.7-5.1l-0.4-15.2
		C162.9,138.9,162.9,138.5,162.9,138.1z M155,123.9c0.1,0.7,0.2,1.4,0.1,2.1l-0.6,8.7c0,0.1,0,0.2,0,0.3l0,0.1
		c0.1,0.6,0.2,1.2,0.1,1.8l0,0.3l0.2,1.6c0,0.2,0,0.4,0,0.6l0.4,15.2c0,0.9-0.1,1.7-0.3,2.6L154,160c-1,3.4-4.2,5.7-7.7,5.7
		c-0.2,0-0.4,0-0.6,0l-2.1-0.2c-0.3,0-0.6-0.1-0.9-0.1l-0.8,2.5c-1,3.4-4.2,5.7-7.7,5.7c-0.2,0-0.4,0-0.6,0l-2.1-0.1
		c-0.4,0-0.9-0.1-1.3-0.2l-0.7,2.4c-1,3.4-4.2,5.7-7.7,5.7c-0.2,0-0.4,0-0.6,0l-2.1-0.2c-0.6,0-1.2-0.2-1.8-0.3l-0.6,2
		c-1,3.4-4.2,5.7-7.7,5.7c-0.2,0-0.4,0-0.6,0l-2.1-0.2c-4.1-0.3-7.3-3.6-7.5-7.7l-0.3-8.4l-1.1-0.2l-1.8,1.3
		c-1.4,1.1-3.1,1.6-4.8,1.6c-1.1,0-2.2-0.2-3.2-0.7c-0.3,1.7-1.2,3.4-2.5,4.6l-1.5,1.4c-1.5,1.3-3.4,2.1-5.4,2.1
		c-1,0-2.1-0.2-3.1-0.6l-1.5-0.6c-0.2-0.1-0.4-0.2-0.5-0.2c-0.5,1.8-1.6,3.4-3.1,4.5l-1.9,1.3c-1.4,1-3.1,1.5-4.7,1.5
		c-2.2,0-4.3-0.9-5.9-2.5l-2.2-2.3c-1.4-1.5-2.2-3.5-2.2-5.5v-14.4c-2.6-1.4-4.3-4.1-4.3-7.1l0-10.4c0-0.6,0.1-1.2,0.2-1.8l0.2-0.7
		c0.1-0.6,0.3-1.2,0.6-1.7c-5-6.1-6.5-13.2-7.4-17.1C36.7,97.4,45,76.6,67.2,62.8c1.5-1.1,3.7-2.6,6.6-2.6c0.8,0,1.6,0.1,2.4,0.4
		c2.9-3.1,5.3-4.5,7-5.1l0.2-0.1c1.2-0.5,3.3-1.5,6.6-1.5c2,0,4.2,0.4,6.6,1.1c0.7,0.2,1.4,0.5,2.1,0.9c1-0.4,2.1-0.6,3.1-0.6
		c0.6,0,1.1,0.1,1.7,0.2c0.1,0,6.3,1.5,12.7,5.4c1.1-0.6,2.4-0.9,3.6-0.9c0.3,0,0.6,0,0.9,0c12,1.3,21.9,7.6,28.4,18.2
		c8.8,14.3,9.5,33.2,5.6,43.9c0,0.1-0.1,0.3-0.1,0.5C154.9,123,155,123.4,155,123.9z M120,68L120,68c-0.8,0,2.4,5.1,5.5,10.3
		c3.1,5.1,6.3,10.3,5.7,10.3c0,0,0,0,0,0c-0.7-0.2-6.9-10.8-14.7-17.8c-5.8-5.2-13.9-7.3-14.5-7.4h0c-0.9,0,7.3,17,8.4,24.8
		c1.4,10.2,2.4,21.6,2.4,21.6s-7.9-43.7-18.4-47c-1.8-0.6-3.2-0.8-4.2-0.8c-2.2,0-3.2,0.9-4.3,1.2c-2.7,0.8-8.7,8.6-13.9,17.6
		c-2.5,4.3-3.9,12.8-3.5,15c-2.7-14.2,7.2-27.4,5.5-27.4c-0.3,0-0.9,0.4-2.1,1.2C43.8,86.7,48,112,50.3,122.9
		c1,4.8,2.8,12.4,9.3,17.1c0,0.2,0.1,0.3,0.1,0.4l0,0c0,0,0,0.1,0,0.1c0.2,0.9,0.2,1.2-1.1,2.7l-0.3,0c-0.1,0.1-0.1,0.1-0.1,0.1
		l34.2,6.6L57,145.2l-0.2,0.8v10.4l4.3,0.7v20.9l2.2,2.3l1.9-1.3l0-21.1l11.2,2.3l0.2,13.7l1.5,0.6l1.5-1.4l0-12.7l10.1,2.1l0.2,3.7
		l0.9,1l1.9-1.4l0.1-2.6l8.4,1.7l3.7-2.5l0.5-0.3l-0.1-1.5l0.8-0.8l0.8,20.8l2.1,0.2l0.8-2.7l-0.4-15.2l0-1.7l0-1.4l0,0l0-1
		l-2.6-3.8l3.5,3.1l0,1.3l6.7-4.2l1-0.6l0.1-1l0.8-0.6l0.2,4.3l0.6,16.3l2.1,0.2l0.8-2.7l-0.4-15.2l0-1.3l0.1-2.1l-0.1-1.2l-2.6-3.8
		l3.5,3.1l0,1.1l6.4-4.2l1-0.7v-0.8l0.8-0.7l0.8,20.6l2.1,0.1l0.8-2.7l-0.4-15.2l-0.1-2.2l0-1.3h0l-0.1-1.5l-2.6-3.8l3.5,3.1l0,1.2
		l6.9-4.7l0.4-0.3v-0.6l0.7-0.4l0.7,20.3l2.1,0.2l0.8-2.7l-0.4-15.2l-0.2-2.2l0-0.8l-0.1-0.7l0,0l0,0l-0.1-0.3l-2.6-3.8
		c0,0,1.7,1.5,2.7,2.4l0.6-8.7L116.5,144c0,0,28.9-18.9,29.9-20l0.6-0.3l-0.2-0.4c0-0.1,0.1-2.1,0.6-3.9
		C152.6,105.1,147.5,70.9,120,68z"/>
	<g id="XMLID_51_">
		<path id="XMLID_73_" fill="#FFFFFF" d="M40.4,267.2c0-0.9,0.6-1.5,1.5-1.5h3.3c4.5,0,7.1,2.9,7.1,7.3c0,4.2-2.7,6.9-6.9,6.9H42
			c-0.7,0-1.6-0.4-1.6-1.5V267.2z M43.4,277.1h2c2.6,0,3.8-1.9,3.8-4.3c0-2.6-1.2-4.4-4-4.4h-1.8V277.1z"/>
		<path id="XMLID_71_" fill="#FFFFFF" d="M53.8,267.1c0-1,0.6-1.6,1.5-1.6c0.9,0,1.5,0.6,1.5,1.6v11.4c0,1-0.6,1.6-1.5,1.6
			c-0.9,0-1.5-0.6-1.5-1.6V267.1z"/>
		<path id="XMLID_69_" fill="#FFFFFF" d="M60,267.1c0.1-0.7,0.9-1.5,2-1.5c1,0,1.8,0.7,2,1.4l2.4,7.9h0l2.4-7.9c0.2-0.7,1-1.4,2-1.4
			c1.1,0,1.8,0.8,2,1.5l1.9,11.2c0,0.1,0,0.2,0,0.3c0,0.9-0.6,1.4-1.4,1.4c-1,0-1.4-0.5-1.6-1.4l-1.2-8.2h0l-2.4,8.4
			c-0.1,0.5-0.5,1.2-1.6,1.2c-1.1,0-1.5-0.7-1.6-1.2l-2.4-8.4h0l-1.2,8.2c-0.1,0.9-0.5,1.4-1.6,1.4c-0.8,0-1.4-0.6-1.4-1.4
			c0-0.1,0-0.2,0-0.3L60,267.1z"/>
		<path id="XMLID_67_" fill="#FFFFFF" d="M84.5,267.4c0,0.8-0.5,1.5-1.3,1.5c-0.8,0-1.5-0.6-2.7-0.6c-0.9,0-1.6,0.5-1.6,1.3
			c0,2.1,6.7,0.7,6.7,5.9c0,2.9-2.4,4.7-5.1,4.7c-1.5,0-4.9-0.4-4.9-2.2c0-0.8,0.5-1.4,1.3-1.4c0.9,0,2.1,0.8,3.4,0.8
			c1.3,0,2-0.7,2-1.7c0-2.4-6.7-0.9-6.7-5.6c0-2.8,2.3-4.6,5-4.6C81.7,265.4,84.5,265.8,84.5,267.4z"/>
		<path id="XMLID_65_" fill="#FFFFFF" d="M86.7,267.1c0-1,0.6-1.6,1.5-1.6c0.9,0,1.5,0.6,1.5,1.6v7c0,1.8,1.2,3.3,3.1,3.3
			c1.8,0,3.1-1.5,3.1-3.3v-7c0-1,0.6-1.6,1.5-1.6c0.9,0,1.5,0.6,1.5,1.6v7.2c0,3.4-2.8,5.9-6.1,5.9c-3.3,0-6.1-2.5-6.1-5.9V267.1z"
			/>
		<path id="XMLID_63_" fill="#FFFFFF" d="M101.5,267.1c0.1-0.7,0.9-1.5,2-1.5c1,0,1.8,0.7,2,1.4l2.4,7.9h0l2.4-7.9
			c0.2-0.7,1-1.4,2-1.4c1.1,0,1.8,0.8,2,1.5l1.9,11.2c0,0.1,0,0.2,0,0.3c0,0.9-0.6,1.4-1.4,1.4c-1,0-1.4-0.5-1.6-1.4l-1.2-8.2h0
			l-2.4,8.4c-0.1,0.5-0.5,1.2-1.6,1.2c-1.1,0-1.5-0.7-1.6-1.2l-2.4-8.4h0l-1.2,8.2c-0.1,0.9-0.5,1.4-1.6,1.4c-0.8,0-1.4-0.6-1.4-1.4
			c0-0.1,0-0.2,0-0.3L101.5,267.1z"/>
		<path id="XMLID_61_" fill="#FFFFFF" d="M116.7,267.1c0-1,0.6-1.6,1.5-1.6c0.9,0,1.5,0.6,1.5,1.6v10.1h3.6c1,0,1.5,0.8,1.4,1.4
			c0,0.7-0.6,1.3-1.4,1.3h-5c-1,0-1.6-0.6-1.6-1.6V267.1z"/>
		<path id="XMLID_58_" fill="#FFFFFF" d="M129.6,267.1c0.3-0.9,1.1-1.7,2.1-1.7c1.1,0,1.8,0.7,2.1,1.7l3.9,10.9
			c0.1,0.3,0.2,0.6,0.2,0.7c0,0.8-0.6,1.3-1.4,1.3c-0.8,0-1.3-0.4-1.5-1l-0.6-1.9H129l-0.6,1.9c-0.2,0.6-0.6,1.1-1.4,1.1
			c-0.8,0-1.5-0.6-1.5-1.4c0-0.3,0.1-0.6,0.1-0.7L129.6,267.1z M129.8,274.3h3.8l-1.9-5.8h0L129.8,274.3z"/>
		<path id="XMLID_54_" fill="#FFFFFF" d="M139.2,267.1c0-1,0.7-1.5,1.6-1.5h3.8c2.1,0,3.8,1.4,3.8,3.5c0,1.4-0.6,2.3-1.9,2.9v0
			c1.7,0.2,3,1.7,3,3.4c0,2.8-1.9,4.4-4.7,4.4h-4.1c-0.9,0-1.6-0.6-1.6-1.5V267.1z M142.2,271.3h1.6c1,0,1.6-0.6,1.6-1.6
			c0-0.9-0.7-1.4-1.6-1.4h-1.6V271.3z M142.2,277.3h2.4c1.1,0,1.9-0.6,1.9-1.7c0-0.9-0.7-1.6-2.1-1.6h-2.1V277.3z"/>
		<path id="XMLID_52_" fill="#FFFFFF" d="M159.2,267.4c0,0.8-0.5,1.5-1.3,1.5s-1.5-0.6-2.7-0.6c-0.9,0-1.6,0.5-1.6,1.3
			c0,2.1,6.7,0.7,6.7,5.9c0,2.9-2.4,4.7-5.1,4.7c-1.5,0-4.9-0.4-4.9-2.2c0-0.8,0.5-1.4,1.3-1.4c0.9,0,2.1,0.8,3.4,0.8
			c1.3,0,2-0.7,2-1.7c0-2.4-6.7-0.9-6.7-5.6c0-2.8,2.3-4.6,5-4.6C156.4,265.4,159.2,265.8,159.2,267.4z"/>
	</g>
	<g id="XMLID_36_">
		<g id="XMLID_49_">
			<path id="XMLID_50_" fill="#FFFFFF" d="M58.5,260c-1.7,0-3-1.3-3-3v-22.4c0-1,0.5-1.9,1.3-2.4L72.4,221v-18.9c0-1.7,1.3-3,3-3
				c1.7,0,3,1.3,3,3v20.4c0,1-0.5,1.9-1.3,2.4l-15.6,11.2V257C61.5,258.7,60.2,260,58.5,260z"/>
		</g>
		<g id="XMLID_47_">
			<path id="XMLID_48_" fill="#FFFFFF" d="M72.4,260c-1.7,0-3-1.3-3-3v-7.6c0-0.9,0.4-1.8,1.2-2.4l13.7-10.5v-40.1c0-1.7,1.3-3,3-3
				c1.7,0,3,1.3,3,3V238c0,0.9-0.4,1.8-1.2,2.4l-13.7,10.5v6.2C75.4,258.7,74.1,260,72.4,260z"/>
		</g>
		<g id="XMLID_45_">
			<path id="XMLID_46_" fill="#FFFFFF" d="M118.9,260c-1.7,0-3-1.3-3-3v-7.6l-7.3-9.4c-0.4-0.5-0.6-1.2-0.6-1.8v-33.5
				c0-1.7,1.3-3,3-3c1.7,0,3,1.3,3,3v32.5l7.3,9.4c0.4,0.5,0.6,1.2,0.6,1.8v8.7C121.9,258.7,120.6,260,118.9,260z"/>
		</g>
		<g id="XMLID_43_">
			<path id="XMLID_44_" fill="#FFFFFF" d="M130.8,260c-1.7,0-3-1.3-3-3v-21h-4.9c-1.7,0-3-1.3-3-3v-32.5c0-1.7,1.3-3,3-3
				c1.7,0,3,1.3,3,3V230h4.9c1.7,0,3,1.3,3,3v24C133.8,258.7,132.5,260,130.8,260z"/>
		</g>
		<g id="XMLID_41_">
			<path id="XMLID_42_" fill="#FFFFFF" d="M142.7,260c-1.7,0-3-1.3-3-3v-28l-7.4-12.3c-0.3-0.5-0.4-1-0.4-1.6v-19.9c0-1.7,1.3-3,3-3
				c1.7,0,3,1.3,3,3v19.1l7.4,12.3c0.3,0.5,0.4,1,0.4,1.6V257C145.7,258.7,144.3,260,142.7,260z"/>
		</g>
		<g id="XMLID_39_">
			<path id="XMLID_40_" fill="#FFFFFF" d="M159.7,291.8H40.3c-5.4,0-9.8-4.4-9.8-9.8v-18.2c0-5.4,4.4-9.8,9.8-9.8H41v-30.5
				c0-0.9,0.4-1.8,1.2-2.4l18.3-13.8v-3.7c0-1.7,1.3-3,3-3c1.7,0,3,1.3,3,3v5.2c0,0.9-0.4,1.8-1.2,2.4L47,225v32c0,1.7-1.3,3-3,3
				h-3.7c-2.1,0-3.8,1.7-3.8,3.8V282c0,2.1,1.7,3.8,3.8,3.8h119.3c2.1,0,3.8-1.7,3.8-3.8v-18.2c0-2.1-1.7-3.8-3.8-3.8H155
				c-1.7,0-3-1.3-3-3v-41.3h-5.3c-1.7,0-3-1.3-3-3v-28.2c0-1.7,1.3-3,3-3c1.7,0,3,1.3,3,3v25.2h5.3c1.7,0,3,1.3,3,3V254h1.7
				c5.4,0,9.8,4.4,9.8,9.8V282C169.4,287.4,165,291.8,159.7,291.8z"/>
		</g>
		<g id="XMLID_37_">
			<path id="XMLID_38_" fill="#FFFFFF" d="M98.7,260C98.7,260,98.7,260,98.7,260c-1.7,0-3-1.4-3-3l0.2-55.5c0-1.7,1.3-3,3-3
				c0,0,0,0,0,0c1.7,0,3,1.4,3,3l-0.2,55.5C101.7,258.7,100.4,260,98.7,260z"/>
		</g>
	</g>
	<g id="XMLID_2_">
		<path id="XMLID_33_" fill="#FFFFFF" d="M105.8,301.1v-0.7h0c0,0.1-0.1,0.2-0.2,0.3c-0.1,0.1-0.2,0.2-0.3,0.3
			c-0.1,0.1-0.3,0.1-0.4,0.2c-0.1,0-0.3,0.1-0.4,0.1c-0.3,0-0.5-0.1-0.8-0.2c-0.2-0.1-0.4-0.2-0.5-0.4s-0.2-0.4-0.3-0.6
			c-0.1-0.2-0.1-0.5-0.1-0.8s0-0.5,0.1-0.8c0.1-0.2,0.2-0.5,0.3-0.6c0.1-0.2,0.3-0.3,0.5-0.4c0.2-0.1,0.5-0.2,0.8-0.2
			c0.1,0,0.3,0,0.4,0.1c0.1,0,0.3,0.1,0.4,0.2c0.1,0.1,0.2,0.2,0.3,0.3c0.1,0.1,0.2,0.2,0.2,0.4h0v-2.2h0.5v5.3H105.8z M103.3,299.8
			c0,0.2,0.1,0.4,0.2,0.5c0.1,0.2,0.2,0.3,0.4,0.4c0.2,0.1,0.3,0.1,0.6,0.1c0.2,0,0.5,0,0.6-0.1c0.2-0.1,0.3-0.2,0.4-0.4
			c0.1-0.2,0.2-0.3,0.2-0.5c0-0.2,0.1-0.4,0.1-0.6c0-0.2,0-0.4-0.1-0.6c0-0.2-0.1-0.4-0.2-0.5c-0.1-0.2-0.2-0.3-0.4-0.4
			c-0.2-0.1-0.4-0.1-0.6-0.1c-0.2,0-0.4,0-0.6,0.1c-0.2,0.1-0.3,0.2-0.4,0.4c-0.1,0.2-0.2,0.3-0.2,0.5c0,0.2-0.1,0.4-0.1,0.6
			C103.2,299.4,103.3,299.6,103.3,299.8z"/>
		<path id="XMLID_30_" fill="#FFFFFF" d="M108,295.8v0.7h-0.5v-0.7H108z M108,297.3v3.8h-0.5v-3.8H108z"/>
		<path id="XMLID_28_" fill="#FFFFFF" d="M109.7,297.3v0.6h0c0.1-0.2,0.3-0.4,0.5-0.6c0.2-0.1,0.5-0.2,0.8-0.2
			c0.3,0,0.5,0.1,0.7,0.2c0.2,0.1,0.3,0.3,0.4,0.6c0.1-0.3,0.3-0.4,0.5-0.6c0.2-0.1,0.5-0.2,0.7-0.2c0.8,0,1.3,0.4,1.3,1.3v2.6h-0.5
			v-2.6c0-0.3-0.1-0.6-0.2-0.7c-0.1-0.2-0.4-0.2-0.7-0.2c-0.2,0-0.4,0-0.5,0.1c-0.1,0.1-0.2,0.2-0.3,0.3c-0.1,0.1-0.1,0.3-0.2,0.4
			c0,0.2,0,0.3,0,0.5v2.2h-0.5v-2.6c0-0.1,0-0.2,0-0.4c0-0.1-0.1-0.2-0.1-0.3c-0.1-0.1-0.1-0.2-0.2-0.2c-0.1,0-0.2-0.1-0.4-0.1
			c-0.2,0-0.4,0-0.5,0.1c-0.1,0.1-0.3,0.2-0.4,0.3c-0.1,0.1-0.2,0.3-0.2,0.4c0,0.2-0.1,0.4-0.1,0.6v2.1h-0.5v-3.8H109.7z"/>
		<path id="XMLID_26_" fill="#FFFFFF" d="M118,298c-0.1-0.1-0.1-0.2-0.2-0.3c-0.1-0.1-0.2-0.1-0.3-0.2c-0.1,0-0.2,0-0.4,0
			c-0.1,0-0.2,0-0.3,0c-0.1,0-0.2,0.1-0.3,0.1c-0.1,0.1-0.2,0.1-0.2,0.2c-0.1,0.1-0.1,0.2-0.1,0.3c0,0.1,0,0.2,0.1,0.3
			c0.1,0.1,0.1,0.1,0.2,0.2c0.1,0,0.2,0.1,0.3,0.1c0.1,0,0.2,0.1,0.3,0.1l0.6,0.1c0.1,0,0.3,0.1,0.4,0.1c0.1,0.1,0.2,0.1,0.3,0.2
			c0.1,0.1,0.2,0.2,0.2,0.3c0.1,0.1,0.1,0.3,0.1,0.4c0,0.2,0,0.4-0.1,0.5c-0.1,0.1-0.2,0.3-0.4,0.4c-0.1,0.1-0.3,0.2-0.5,0.2
			c-0.2,0-0.4,0.1-0.5,0.1c-0.4,0-0.8-0.1-1.1-0.3c-0.3-0.2-0.4-0.6-0.5-1h0.5c0,0.3,0.1,0.6,0.3,0.7c0.2,0.2,0.5,0.2,0.8,0.2
			c0.1,0,0.2,0,0.3,0c0.1,0,0.2-0.1,0.3-0.1c0.1-0.1,0.2-0.1,0.3-0.2c0.1-0.1,0.1-0.2,0.1-0.3c0-0.1,0-0.2-0.1-0.3
			c0-0.1-0.1-0.1-0.2-0.2c-0.1-0.1-0.2-0.1-0.3-0.1c-0.1,0-0.2-0.1-0.3-0.1l-0.6-0.1c-0.2,0-0.3-0.1-0.4-0.1
			c-0.1-0.1-0.2-0.1-0.3-0.2c-0.1-0.1-0.2-0.2-0.2-0.3c-0.1-0.1-0.1-0.2-0.1-0.4c0-0.2,0-0.4,0.1-0.5c0.1-0.1,0.2-0.2,0.3-0.3
			c0.1-0.1,0.3-0.1,0.5-0.2c0.2,0,0.3-0.1,0.5-0.1c0.2,0,0.4,0,0.5,0.1c0.2,0,0.3,0.1,0.4,0.2c0.1,0.1,0.2,0.2,0.3,0.4
			c0.1,0.2,0.1,0.3,0.1,0.5h-0.5C118,298.3,118,298.2,118,298z"/>
		<path id="XMLID_24_" fill="#FFFFFF" d="M122.3,301.1v-0.7h0c-0.1,0.3-0.3,0.5-0.5,0.6c-0.2,0.1-0.5,0.2-0.8,0.2
			c-0.2,0-0.4,0-0.6-0.1c-0.2-0.1-0.3-0.2-0.4-0.3c-0.1-0.1-0.2-0.3-0.2-0.5c0-0.2-0.1-0.4-0.1-0.6v-2.5h0.5v2.5
			c0,0.3,0.1,0.6,0.2,0.8c0.1,0.2,0.4,0.3,0.8,0.3c0.2,0,0.4,0,0.5-0.1c0.1-0.1,0.3-0.2,0.4-0.3c0.1-0.1,0.2-0.3,0.2-0.5
			c0-0.2,0.1-0.4,0.1-0.6v-2h0.5v3.8H122.3z"/>
		<path id="XMLID_22_" fill="#FFFFFF" d="M124.4,297.3v0.6h0c0.1-0.2,0.3-0.4,0.5-0.6c0.2-0.1,0.5-0.2,0.8-0.2
			c0.3,0,0.5,0.1,0.7,0.2c0.2,0.1,0.3,0.3,0.4,0.6c0.1-0.3,0.3-0.4,0.5-0.6c0.2-0.1,0.5-0.2,0.7-0.2c0.8,0,1.3,0.4,1.3,1.3v2.6h-0.5
			v-2.6c0-0.3-0.1-0.6-0.2-0.7c-0.1-0.2-0.4-0.2-0.7-0.2c-0.2,0-0.4,0-0.5,0.1c-0.1,0.1-0.2,0.2-0.3,0.3c-0.1,0.1-0.1,0.3-0.2,0.4
			c0,0.2,0,0.3,0,0.5v2.2h-0.5v-2.6c0-0.1,0-0.2,0-0.4c0-0.1-0.1-0.2-0.1-0.3c-0.1-0.1-0.1-0.2-0.2-0.2c-0.1,0-0.2-0.1-0.4-0.1
			c-0.2,0-0.4,0-0.5,0.1c-0.1,0.1-0.3,0.2-0.4,0.3c-0.1,0.1-0.2,0.3-0.2,0.4c0,0.2-0.1,0.4-0.1,0.6v2.1H124v-3.8H124.4z"/>
		<path id="XMLID_20_" fill="#FFFFFF" d="M131,295.8v5.3h-0.5v-5.3H131z"/>
		<path id="XMLID_17_" fill="#FFFFFF" d="M132.4,297.9c0.1-0.2,0.2-0.3,0.3-0.4c0.1-0.1,0.3-0.2,0.5-0.2c0.2,0,0.4-0.1,0.6-0.1
			c0.2,0,0.3,0,0.5,0c0.2,0,0.3,0.1,0.4,0.2c0.1,0.1,0.2,0.2,0.3,0.4c0.1,0.2,0.1,0.4,0.1,0.6v2c0,0.2,0.1,0.3,0.3,0.3
			c0.1,0,0.1,0,0.1,0v0.4c-0.1,0-0.1,0-0.1,0c0,0-0.1,0-0.2,0c-0.1,0-0.2,0-0.3,0s-0.1-0.1-0.2-0.1c0-0.1-0.1-0.1-0.1-0.2
			c0-0.1,0-0.2,0-0.3h0c-0.1,0.1-0.2,0.2-0.3,0.3c-0.1,0.1-0.2,0.2-0.3,0.2c-0.1,0.1-0.2,0.1-0.4,0.1c-0.1,0-0.3,0.1-0.5,0.1
			c-0.2,0-0.3,0-0.5-0.1c-0.2,0-0.3-0.1-0.4-0.2c-0.1-0.1-0.2-0.2-0.3-0.3c-0.1-0.1-0.1-0.3-0.1-0.5c0-0.3,0.1-0.5,0.2-0.6
			c0.1-0.2,0.3-0.3,0.5-0.3c0.2-0.1,0.4-0.1,0.7-0.2c0.2,0,0.5-0.1,0.7-0.1c0.1,0,0.2,0,0.3,0c0.1,0,0.1,0,0.2-0.1
			c0,0,0.1-0.1,0.1-0.2c0-0.1,0-0.1,0-0.3c0-0.2,0-0.3-0.1-0.4c-0.1-0.1-0.1-0.2-0.2-0.2c-0.1-0.1-0.2-0.1-0.3-0.1
			c-0.1,0-0.2,0-0.4,0c-0.3,0-0.5,0.1-0.7,0.2c-0.2,0.1-0.3,0.4-0.3,0.7h-0.5C132.2,298.2,132.3,298.1,132.4,297.9z M134.7,299
			c0,0.1-0.1,0.1-0.2,0.1c-0.1,0-0.2,0-0.2,0.1c-0.2,0-0.4,0.1-0.6,0.1c-0.2,0-0.4,0.1-0.6,0.1c-0.2,0.1-0.3,0.1-0.4,0.2
			c-0.1,0.1-0.2,0.2-0.2,0.4c0,0.1,0,0.2,0.1,0.3c0,0.1,0.1,0.2,0.2,0.2c0.1,0.1,0.2,0.1,0.3,0.2c0.1,0,0.2,0.1,0.3,0.1
			c0.2,0,0.3,0,0.5-0.1c0.2-0.1,0.3-0.1,0.4-0.2c0.1-0.1,0.2-0.2,0.3-0.4c0.1-0.1,0.1-0.3,0.1-0.5L134.7,299L134.7,299z"/>
		<path id="XMLID_14_" fill="#FFFFFF" d="M136.9,295.8v2.2h0c0-0.1,0.1-0.3,0.2-0.4c0.1-0.1,0.2-0.2,0.3-0.3
			c0.1-0.1,0.2-0.1,0.4-0.2c0.1,0,0.3-0.1,0.4-0.1c0.3,0,0.5,0.1,0.8,0.2c0.2,0.1,0.4,0.3,0.5,0.4c0.1,0.2,0.2,0.4,0.3,0.6
			c0.1,0.2,0.1,0.5,0.1,0.8s0,0.5-0.1,0.8c-0.1,0.2-0.2,0.5-0.3,0.6c-0.1,0.2-0.3,0.3-0.5,0.4c-0.2,0.1-0.5,0.2-0.8,0.2
			c-0.3,0-0.6-0.1-0.8-0.2c-0.2-0.1-0.4-0.3-0.5-0.6h0v0.7h-0.4v-5.3H136.9z M139.4,298.6c0-0.2-0.1-0.4-0.2-0.5
			c-0.1-0.2-0.2-0.3-0.4-0.4c-0.2-0.1-0.3-0.1-0.6-0.1c-0.2,0-0.5,0-0.6,0.1c-0.2,0.1-0.3,0.2-0.4,0.4c-0.1,0.2-0.2,0.3-0.2,0.5
			c0,0.2-0.1,0.4-0.1,0.6c0,0.2,0,0.4,0.1,0.6c0,0.2,0.1,0.4,0.2,0.5c0.1,0.2,0.2,0.3,0.4,0.4c0.2,0.1,0.4,0.1,0.6,0.1
			c0.2,0,0.4,0,0.6-0.1c0.2-0.1,0.3-0.2,0.4-0.4c0.1-0.2,0.2-0.3,0.2-0.5c0-0.2,0.1-0.4,0.1-0.6C139.5,299,139.5,298.8,139.4,298.6z
			"/>
		<path id="XMLID_12_" fill="#FFFFFF" d="M143.3,298c-0.1-0.1-0.1-0.2-0.2-0.3c-0.1-0.1-0.2-0.1-0.3-0.2c-0.1,0-0.2,0-0.4,0
			c-0.1,0-0.2,0-0.3,0c-0.1,0-0.2,0.1-0.3,0.1c-0.1,0.1-0.2,0.1-0.2,0.2c-0.1,0.1-0.1,0.2-0.1,0.3c0,0.1,0,0.2,0.1,0.3
			c0.1,0.1,0.1,0.1,0.2,0.2c0.1,0,0.2,0.1,0.3,0.1c0.1,0,0.2,0.1,0.3,0.1l0.6,0.1c0.1,0,0.3,0.1,0.4,0.1c0.1,0.1,0.2,0.1,0.3,0.2
			c0.1,0.1,0.2,0.2,0.2,0.3c0.1,0.1,0.1,0.3,0.1,0.4c0,0.2,0,0.4-0.1,0.5c-0.1,0.1-0.2,0.3-0.4,0.4c-0.1,0.1-0.3,0.2-0.5,0.2
			c-0.2,0-0.4,0.1-0.5,0.1c-0.4,0-0.8-0.1-1.1-0.3c-0.3-0.2-0.4-0.6-0.5-1h0.5c0,0.3,0.1,0.6,0.3,0.7c0.2,0.2,0.5,0.2,0.8,0.2
			c0.1,0,0.2,0,0.3,0c0.1,0,0.2-0.1,0.3-0.1c0.1-0.1,0.2-0.1,0.3-0.2c0.1-0.1,0.1-0.2,0.1-0.3c0-0.1,0-0.2-0.1-0.3
			c0-0.1-0.1-0.1-0.2-0.2c-0.1-0.1-0.2-0.1-0.3-0.1c-0.1,0-0.2-0.1-0.3-0.1l-0.6-0.1c-0.2,0-0.3-0.1-0.4-0.1
			c-0.1-0.1-0.2-0.1-0.3-0.2c-0.1-0.1-0.2-0.2-0.2-0.3c-0.1-0.1-0.1-0.2-0.1-0.4c0-0.2,0-0.4,0.1-0.5c0.1-0.1,0.2-0.2,0.3-0.3
			c0.1-0.1,0.3-0.1,0.5-0.2c0.2,0,0.3-0.1,0.5-0.1c0.2,0,0.4,0,0.5,0.1c0.2,0,0.3,0.1,0.4,0.2c0.1,0.1,0.2,0.2,0.3,0.4
			c0.1,0.2,0.1,0.3,0.1,0.5h-0.5C143.3,298.3,143.3,298.2,143.3,298z"/>
		<path id="XMLID_10_" fill="#FFFFFF" d="M145.3,300.3h0.6v0.8h-0.6V300.3z"/>
		<path id="XMLID_8_" fill="#FFFFFF" d="M149.7,297.8c-0.2-0.2-0.4-0.2-0.7-0.2c-0.2,0-0.4,0-0.6,0.1c-0.2,0.1-0.3,0.2-0.4,0.4
			c-0.1,0.2-0.2,0.3-0.3,0.5c-0.1,0.2-0.1,0.4-0.1,0.6c0,0.2,0,0.4,0.1,0.6c0.1,0.2,0.1,0.4,0.3,0.5c0.1,0.2,0.2,0.3,0.4,0.4
			c0.2,0.1,0.4,0.1,0.6,0.1c0.1,0,0.3,0,0.4-0.1c0.1-0.1,0.2-0.1,0.3-0.2c0.1-0.1,0.2-0.2,0.2-0.3c0.1-0.1,0.1-0.3,0.1-0.4h0.5
			c-0.1,0.5-0.2,0.8-0.5,1.1c-0.3,0.3-0.6,0.4-1.1,0.4c-0.3,0-0.5-0.1-0.8-0.2c-0.2-0.1-0.4-0.2-0.6-0.4c-0.2-0.2-0.3-0.4-0.3-0.6
			c-0.1-0.2-0.1-0.5-0.1-0.8s0-0.5,0.1-0.8c0.1-0.2,0.2-0.5,0.3-0.6c0.2-0.2,0.3-0.3,0.6-0.4c0.2-0.1,0.5-0.2,0.8-0.2
			c0.4,0,0.8,0.1,1,0.3c0.3,0.2,0.5,0.5,0.5,1h-0.5C150,298.2,149.9,298,149.7,297.8z"/>
		<path id="XMLID_5_" fill="#FFFFFF" d="M154,297.4c0.2,0.1,0.4,0.3,0.6,0.4c0.2,0.2,0.3,0.4,0.3,0.6c0.1,0.2,0.1,0.5,0.1,0.8
			s0,0.5-0.1,0.8c-0.1,0.2-0.2,0.5-0.3,0.6c-0.2,0.2-0.3,0.3-0.6,0.4c-0.2,0.1-0.5,0.2-0.8,0.2c-0.3,0-0.5-0.1-0.8-0.2
			c-0.2-0.1-0.4-0.2-0.6-0.4c-0.2-0.2-0.3-0.4-0.3-0.6c-0.1-0.2-0.1-0.5-0.1-0.8s0-0.5,0.1-0.8c0.1-0.2,0.2-0.5,0.3-0.6
			c0.2-0.2,0.3-0.3,0.6-0.4c0.2-0.1,0.5-0.2,0.8-0.2C153.5,297.2,153.7,297.2,154,297.4z M152.6,297.7c-0.2,0.1-0.3,0.2-0.4,0.4
			c-0.1,0.2-0.2,0.3-0.3,0.5c-0.1,0.2-0.1,0.4-0.1,0.6c0,0.2,0,0.4,0.1,0.6c0.1,0.2,0.1,0.4,0.3,0.5c0.1,0.2,0.2,0.3,0.4,0.4
			c0.2,0.1,0.4,0.1,0.6,0.1c0.2,0,0.4,0,0.6-0.1c0.2-0.1,0.3-0.2,0.4-0.4c0.1-0.2,0.2-0.3,0.2-0.5c0.1-0.2,0.1-0.4,0.1-0.6
			c0-0.2,0-0.4-0.1-0.6c-0.1-0.2-0.1-0.4-0.2-0.5c-0.1-0.2-0.2-0.3-0.4-0.4c-0.2-0.1-0.4-0.1-0.6-0.1
			C153,297.6,152.8,297.6,152.6,297.7z"/>
		<path id="XMLID_3_" fill="#FFFFFF" d="M156.5,297.3v0.6h0c0.1-0.2,0.3-0.4,0.5-0.6c0.2-0.1,0.5-0.2,0.8-0.2c0.3,0,0.5,0.1,0.7,0.2
			c0.2,0.1,0.3,0.3,0.4,0.6c0.1-0.3,0.3-0.4,0.5-0.6c0.2-0.1,0.5-0.2,0.7-0.2c0.8,0,1.3,0.4,1.3,1.3v2.6h-0.5v-2.6
			c0-0.3-0.1-0.6-0.2-0.7c-0.1-0.2-0.4-0.2-0.7-0.2c-0.2,0-0.4,0-0.5,0.1c-0.1,0.1-0.2,0.2-0.3,0.3c-0.1,0.1-0.1,0.3-0.2,0.4
			c0,0.2,0,0.3,0,0.5v2.2h-0.5v-2.6c0-0.1,0-0.2,0-0.4c0-0.1-0.1-0.2-0.1-0.3c-0.1-0.1-0.1-0.2-0.2-0.2c-0.1,0-0.2-0.1-0.4-0.1
			c-0.2,0-0.4,0-0.5,0.1c-0.1,0.1-0.3,0.2-0.4,0.3c-0.1,0.1-0.2,0.3-0.2,0.4c0,0.2-0.1,0.4-0.1,0.6v2.1h-0.5v-3.8H156.5z"/>
	</g>
</g>
</svg>
