<?xml version="1.0" encoding="UTF-8" standalone="no"?>
<!DOCTYPE svg PUBLIC "-//W3C//DTD SVG 1.1//EN" "http://www.w3.org/Graphics/SVG/1.1/DTD/svg11.dtd">
<svg xmlns:xl="http://www.w3.org/1999/xlink" xmlns:dc="http://purl.org/dc/elements/1.1/" version="1.1" xmlns="http://www.w3.org/2000/svg" viewBox="-2 -2 89 89" width="89" height="89">
  <defs/>
  <metadata> Produced by OmniGraffle 7.19.4\n2022-07-27 06:32:40 +0000</metadata>
  <g id="Canvas_1" stroke-opacity="1" stroke="none" stroke-dasharray="none" fill="none" fill-opacity="1">
    <title>Canvas 1</title>
    <g id="Canvas_1_Layer_1">
      <title>Layer 1</title>
      <g id="Group_9">
        <g id="Group_7">
          <g id="Graphic_6">
            <path d="M 47.464884 74.8129 C 47.390884 74.8129 47.318884 74.8089 47.245884 74.8039 L 46.191884 74.7269 C 44.671883 74.6169 43.48088 73.3799 43.42288 71.8599 L 43.23988 66.9259 C 43.14888 66.9159 43.05988 66.9029 42.96888 66.8829 L 41.45088 66.5709 C 41.36988 66.6469 41.28088 66.7199 41.18988 66.7879 L 40.23888 67.4929 C 39.70688 67.8889 39.08188 68.0829 38.46088 68.0829 C 37.62488 68.0829 36.79688 67.7329 36.20888 67.0579 L 35.93788 66.7499 L 35.93488 68.0499 C 35.92988 68.8939 35.56888 69.6959 34.94188 70.2619 L 34.18588 70.9409 C 33.62788 71.4419 32.913878 71.7059 32.190877 71.7059 C 31.806877 71.7059 31.420877 71.6319 31.052877 71.4809 L 30.292877 71.1669 C 29.640876 70.8979 29.115876 70.4149 28.795876 69.8139 L 28.793876 70.9659 C 28.791876 71.9259 28.326876 72.8279 27.547875 73.3889 L 26.623875 74.0509 C 26.099875 74.4249 25.489875 74.6089 24.883874 74.6089 C 24.083874 74.6089 23.291874 74.2909 22.708873 73.6719 L 21.644873 72.5429 C 21.122873 71.9889 20.830873 71.2559 20.830873 70.4939 L 20.830873 62.6889 C 19.584872 62.3149 18.705872 61.1629 18.705872 59.8309 L 18.705872 54.7019 C 18.705872 54.4749 18.732872 54.2499 18.783872 54.0289 L 18.869872 53.6589 C 18.972872 53.2169 19.167872 52.8189 19.432872 52.4829 C 16.73287 49.5459 15.95187 45.8669 15.54187 43.9289 C 12.803869 30.9419 16.78987 21.0219 27.380875 14.4299 C 28.193876 13.8289 29.019876 13.3059 30.088877 13.3059 C 30.583877 13.3059 31.084877 13.4389 31.529877 13.6739 C 32.755878 12.2869 34.01588 11.2109 35.16888 10.8789 L 35.23888 10.8399 C 35.74588 10.6119 36.68788 10.1879 38.10588 10.1879 C 39.00488 10.1879 39.98188 10.3549 41.08788 10.6999 C 41.53288 10.8389 41.96988 11.0479 42.38688 11.3229 C 42.86588 11.0269 43.42288 10.8649 43.99188 10.8649 C 44.200883 10.8649 44.407883 10.8859 44.616883 10.9309 C 44.653883 10.9369 47.920884 11.6889 51.116886 13.7769 C 51.637886 13.3959 52.278886 13.1789 52.931886 13.1789 C 53.034887 13.1789 53.139887 13.1859 53.243887 13.1969 C 58.88289 13.8089 63.48789 16.7499 66.55889 21.7039 C 70.788894 28.5219 71.094894 37.5729 69.23589 42.6249 C 69.19889 42.7449 69.16289 42.9419 69.13889 43.1299 C 69.18989 43.3849 69.20489 43.6399 69.18989 43.8949 C 69.25989 44.1839 69.28689 44.4879 69.26789 44.7949 L 68.98289 49.1229 C 68.97889 49.2099 68.96889 49.2969 68.95689 49.3829 L 68.99589 49.5989 C 69.03889 49.8139 69.05689 50.0369 69.05089 50.2569 L 69.04289 50.4619 L 69.13089 51.3369 C 69.13889 51.4119 69.14189 51.4869 69.14489 51.5619 L 69.32989 59.0839 C 69.33989 59.4039 69.29689 59.7249 69.20189 60.0319 L 68.78689 61.3899 C 68.39889 62.6539 67.23489 63.5029 65.93189 63.5029 C 65.85989 63.5029 65.78589 63.4999 65.71089 63.4949 L 64.65689 63.4179 C 64.17989 63.3829 63.73289 63.2359 63.34589 63.0019 L 63.34589 63.0149 C 63.35389 63.3339 63.31089 63.6549 63.21689 63.9609 L 62.80289 65.3179 C 62.41689 66.5809 61.25189 67.4309 59.94789 67.4329 C 59.87489 67.4329 59.80489 67.4289 59.73489 67.4249 L 58.67589 67.3489 C 58.12889 67.3109 57.61989 67.1249 57.19389 66.8319 L 57.19389 66.8439 C 57.20289 67.1639 57.15989 67.4809 57.06789 67.7849 L 56.65589 69.1419 C 56.27389 70.4099 55.10489 71.2649 53.79689 71.2649 C 53.72589 71.2649 53.65389 71.2599 53.579887 71.2559 L 52.523886 71.1789 C 51.897886 71.1339 51.325886 70.8959 50.866886 70.5279 C 50.862886 70.8039 50.818886 71.0809 50.737886 71.3449 L 50.318885 72.7049 C 49.931885 73.9629 48.765885 74.8129 47.464884 74.8129 Z" fill="white"/>
          </g>
          <g id="Graphic_5">
            <path d="M 38.10548 7.2006 C 36.05248 7.2006 34.68148 7.8156 34.01948 8.1136 C 32.850478 8.5276 31.701477 9.3336 30.614477 10.3416 C 30.441477 10.3266 30.265477 10.3186 30.088477 10.3186 C 28.059476 10.3186 26.571475 11.3146 25.690475 11.9656 C 14.00447 19.2856 9.606468 30.2446 12.616469 44.5416 C 12.993469 46.3136 13.72447 49.7576 15.97147 52.9366 C 15.96747 52.9526 15.96347 52.9676 15.96147 52.9816 L 15.87547 53.3516 C 15.77247 53.7936 15.72147 54.2456 15.72147 54.6996 L 15.72047 59.8296 C 15.72047 61.6456 16.53647 63.2966 17.845471 64.3996 L 17.845471 70.4936 C 17.845471 72.0136 18.425472 73.4776 19.468472 74.5866 L 20.531472 75.7166 C 21.698473 76.9566 23.285474 77.5966 24.884474 77.5966 C 26.097475 77.5966 27.315475 77.2296 28.364476 76.4766 L 29.289476 75.8136 C 29.811476 75.4406 30.261477 74.9906 30.630477 74.4846 C 31.143477 74.6236 31.667477 74.6916 32.188477 74.6916 C 33.63548 74.6916 35.06348 74.1666 36.17948 73.1646 L 36.93548 72.4856 C 37.40048 72.0686 37.79248 71.5866 38.10048 71.0576 C 38.22048 71.0656 38.34148 71.0686 38.46048 71.0686 C 39.11348 71.0686 39.76548 70.9626 40.39448 70.7476 L 40.43948 71.9716 C 40.55248 75.0166 42.94148 77.4896 45.981483 77.7086 L 47.037484 77.7836 C 47.181484 77.7946 47.325484 77.7996 47.467484 77.7996 C 49.851485 77.7996 52.003486 76.3786 52.945486 74.2046 L 53.371487 74.2346 C 53.513487 74.2456 53.65749 74.2506 53.80049 74.2506 C 56.27949 74.2506 58.50549 72.7146 59.38349 70.3946 L 59.53149 70.4046 C 59.66949 70.4146 59.81049 70.4196 59.94949 70.4196 C 62.45749 70.4196 64.70949 68.8456 65.56449 66.4776 C 65.68749 66.4836 65.81049 66.4886 65.93349 66.4886 C 68.54149 66.4886 70.871494 64.7886 71.642495 62.2626 L 72.058495 60.9046 C 72.246495 60.2916 72.333495 59.6506 72.317495 59.0096 L 72.130495 51.4896 C 72.126495 51.3396 72.118495 51.1896 72.102495 51.0416 L 72.035495 50.3716 L 72.036495 50.3626 C 72.048495 49.9896 72.026495 49.6166 71.968495 49.2476 L 72.249495 44.9916 C 72.279495 44.5316 72.255495 44.0736 72.183495 43.6296 C 72.181495 43.5156 72.175495 43.4016 72.168495 43.2886 C 74.1795 37.3886 73.779496 27.6796 69.09949 20.1326 C 65.52749 14.3676 60.15549 10.9426 53.567487 10.2266 C 53.353487 10.2036 53.128487 10.1916 52.913486 10.1916 C 52.363486 10.1916 51.822486 10.2666 51.306486 10.4106 C 48.127484 8.6526 45.293483 8.0206 45.253483 8.0126 C 44.834483 7.9206 44.413483 7.8766 43.99248 7.8766 C 43.50548 7.8766 43.02348 7.9356 42.55648 8.0516 C 42.36748 7.9756 42.17348 7.9106 41.97848 7.8486 C 40.57448 7.4126 39.30948 7.2006 38.10548 7.2006 M 38.10548 13.1756 C 38.63748 13.1756 39.31448 13.2766 40.20248 13.5536 C 45.421483 15.1786 49.308485 36.7606 49.308485 36.7606 C 48.804485 31.1336 48.121484 26.0996 48.121484 26.0996 C 47.599484 22.2586 43.54348 13.8496 43.97648 13.8496 L 43.98748 13.8496 C 44.265483 13.9106 48.246484 14.9586 51.135486 17.5326 C 55.00949 20.9906 58.06049 26.2326 58.41649 26.3356 C 58.42149 26.3376 58.43149 26.3376 58.43949 26.3376 C 58.75949 26.3376 57.19749 23.7946 55.64249 21.2516 C 54.08949 18.7106 52.548486 16.1666 52.913486 16.1666 L 52.923486 16.1666 C 66.48149 17.6386 69.03349 34.5246 66.43149 41.5926 C 66.15049 42.4406 66.10749 43.4366 66.11349 43.5016 L 66.20749 43.7106 L 65.93449 43.8486 C 65.45549 44.4106 51.164486 53.7476 51.164486 53.7476 L 66.28749 44.5986 L 66.00349 48.9256 C 65.50249 48.4796 64.66049 47.7326 64.66049 47.7326 L 65.95949 49.6286 L 65.98849 49.7686 L 65.98649 49.7886 L 65.99449 49.7976 L 66.06549 50.1636 L 66.05049 50.5716 L 66.15849 51.6376 L 66.34549 59.1576 L 65.93049 60.5146 L 64.87649 60.4386 L 64.51549 50.3936 L 64.14749 50.5866 L 64.14749 50.8996 L 63.92749 51.0306 L 60.53349 53.3686 L 60.51849 52.7596 L 58.81049 51.2406 L 60.11249 53.1376 L 60.14349 53.8556 L 60.14649 53.8556 L 60.12349 54.5046 L 60.16949 55.5686 L 60.35949 63.0906 L 59.94749 64.4446 L 58.88749 64.3716 L 58.49649 54.1906 L 58.10549 54.5146 L 58.10549 54.9056 L 57.58749 55.2286 L 54.43149 57.3196 L 54.42049 56.7686 C 54.41849 56.7686 52.710486 55.2506 52.710486 55.2506 L 54.01149 57.1446 L 54.03949 57.7386 L 54.00449 58.7666 L 54.02249 59.3956 L 54.20949 66.9186 L 53.79649 68.2756 L 52.740486 68.1996 L 52.437486 60.1326 L 52.326486 58.0066 L 51.920486 58.2906 L 51.888486 58.7606 L 51.396486 59.0686 L 48.105484 61.1386 L 48.089484 60.5086 L 46.382484 58.9906 L 47.685484 60.8866 L 47.707484 61.3916 L 47.701484 61.3936 L 47.699484 62.0966 L 47.695484 62.9476 L 47.880484 70.4686 L 47.464484 71.8256 L 46.409484 71.7496 L 46.028483 61.4846 L 45.622483 61.8606 L 45.650483 62.5806 L 45.402483 62.7416 L 43.57248 63.9576 L 39.43748 63.1046 L 39.40848 64.3906 L 38.45948 65.0956 L 38.03148 64.6046 L 37.93548 62.8006 L 32.967478 61.7786 L 32.946478 68.0386 L 32.189477 68.7176 L 31.430477 68.4066 L 31.343477 61.6326 L 25.826475 60.5116 L 25.806475 70.9606 L 24.882474 71.6236 L 23.819474 70.4936 L 23.819474 60.1796 L 21.694473 59.8306 L 21.694473 54.7006 L 21.780473 54.3306 L 39.33748 56.6916 L 22.413473 53.4116 C 22.416473 53.4086 22.434473 53.3896 22.468473 53.3576 L 22.606473 53.3446 C 23.218474 52.6016 23.222474 52.4546 23.130474 52.0056 C 23.130474 51.9916 23.133474 51.9776 23.130474 51.9636 L 23.123474 51.9606 C 23.109474 51.8956 23.094474 51.8196 23.080474 51.7406 C 19.852472 49.4436 18.963472 45.6736 18.462472 43.3106 C 17.32447 37.9076 15.26747 25.4186 29.060476 16.9046 C 29.618476 16.4856 29.938477 16.2936 30.088477 16.2936 C 30.962477 16.2936 26.033475 22.8186 27.386475 29.8576 C 27.188475 28.8046 27.892476 24.5826 29.103476 22.4676 C 31.678477 17.9786 34.67748 14.1316 35.99848 13.7486 C 36.52048 13.5996 37.00548 13.1756 38.10548 13.1756" fill="white"/>
          </g>
          <g id="Graphic_4">
            <path d="M 60.74809 50.2875 L 61.06809 50.5715 L 62.36509 49.6785 C 62.52109 49.3735 62.75409 49.1085 63.04709 48.9165 L 63.03709 48.9025 Z M 54.43509 54.1065 C 54.59109 54.2455 54.77609 54.4105 54.95809 54.5715 L 56.28109 53.6955 C 56.40409 53.4205 56.59109 53.1735 56.82809 52.9755 L 57.21909 52.6515 C 57.24709 52.6285 57.27609 52.6045 57.30709 52.5835 L 57.20209 52.4325 Z M 39.43708 61.1045 C 39.57208 61.1045 39.70708 61.1185 39.84108 61.1455 L 43.16008 61.8305 L 43.65508 61.5015 C 43.73108 61.0795 43.94308 60.6895 44.264083 60.3925 L 44.667083 60.0185 C 44.174083 59.1975 44.332083 58.1335 45.060083 57.4915 C 45.816083 56.8225 46.955084 56.8245 47.712084 57.4955 L 48.718085 58.3915 L 50.065085 57.5435 C 50.209085 57.1875 50.452085 56.8775 50.772086 56.6525 L 51.094086 56.4285 L 51.062086 56.3825 C 50.918086 56.1725 50.818086 55.9425 50.764086 55.7065 C 50.247085 55.6005 49.773085 55.2925 49.471085 54.8115 C 48.891085 53.8885 49.157085 52.6705 50.070085 52.0725 C 54.77109 49.0015 62.23509 44.0775 64.16809 42.6915 C 64.22709 42.1775 64.33909 41.5485 64.53309 40.9635 C 65.99509 36.9885 65.55109 29.5425 62.32209 24.3335 C 60.86409 21.9815 59.00409 20.2815 56.76609 19.2505 C 56.98309 19.6095 57.18509 19.9405 57.35009 20.2085 L 57.45709 20.3855 C 60.52409 25.4015 60.91909 26.0465 60.21809 27.2975 C 59.75909 28.1155 58.67509 28.5315 57.78309 28.2325 C 57.07609 28.0305 56.76809 27.5915 55.74409 26.1375 C 54.54609 24.4345 52.316086 21.2665 49.804085 19.0245 C 49.050085 18.3525 48.197084 17.7965 47.370084 17.3475 C 48.493085 20.1555 49.796085 23.5675 50.102085 25.8315 C 50.697086 30.2075 51.162086 35.0795 51.274086 36.2955 C 51.310086 36.4445 51.328086 36.5995 51.328086 36.7605 C 51.328086 37.8645 50.434085 38.7605 49.328085 38.7605 L 49.307085 38.7605 C 48.352085 38.7605 47.514084 38.0785 47.340084 37.1145 C 45.382083 26.2535 41.76908 16.1355 39.60708 15.4625 C 38.84408 15.2245 38.37008 15.1755 38.10508 15.1755 C 37.75908 15.1755 37.60108 15.2465 37.28708 15.3875 C 37.06008 15.4885 36.84808 15.5775 36.63608 15.6445 C 35.95008 16.0475 33.53608 18.7615 30.838077 23.4625 C 29.895076 25.1095 29.269076 28.7055 29.358076 29.5225 C 29.562076 30.6075 28.847076 31.6345 27.764076 31.8405 C 26.678075 32.0475 25.631075 31.3185 25.423075 30.2355 C 24.822074 27.1125 25.304074 24.1125 26.037075 21.6495 C 18.537072 28.4955 19.150072 36.8715 20.420072 42.8985 C 20.812073 44.7465 21.542073 48.1915 24.240074 50.1105 C 24.663074 50.4125 24.952074 50.8655 25.047074 51.3765 L 25.054074 51.4155 C 25.069074 51.4665 25.081074 51.5175 25.092074 51.5705 C 25.104074 51.6335 25.114074 51.6995 25.121074 51.7665 C 25.128074 51.8125 25.135074 51.8585 25.141074 51.9025 L 39.61308 54.7085 C 40.59708 54.8335 41.35808 55.6735 41.35808 56.6915 C 41.35808 57.7915 40.47108 58.6835 39.37308 58.6915 C 39.27308 58.6915 39.17308 58.6875 39.07108 58.6745 L 23.694074 56.6055 L 23.694074 58.1325 L 24.143074 58.2055 C 24.508074 58.2655 24.836074 58.4225 25.104074 58.6455 C 25.457075 58.5095 25.846075 58.4745 26.225075 58.5515 L 31.742077 59.6725 C 31.949077 59.7145 32.143077 59.7875 32.320078 59.8865 C 32.655078 59.7725 33.017078 59.7475 33.371078 59.8195 L 38.33808 60.8415 C 38.60108 60.8945 38.84208 60.9995 39.05408 61.1415 C 39.18008 61.1175 39.30908 61.1045 39.43708 61.1045 M 47.466084 73.8255 C 47.418084 73.8255 47.369084 73.8235 47.321084 73.8205 L 46.266084 73.7445 C 45.248083 73.6715 44.448083 72.8435 44.410083 71.8235 L 44.189083 65.8595 C 43.86208 65.9655 43.51108 65.9855 43.16808 65.9165 L 41.08208 65.4855 C 40.95408 65.6815 40.79108 65.8545 40.60008 65.9975 L 39.65008 66.7015 C 38.81308 67.3225 37.63908 67.1955 36.95208 66.4095 L 36.52408 65.9195 C 36.23008 65.5825 36.05808 65.1575 36.03408 64.7105 L 36.02008 64.4485 L 34.95908 64.2295 L 34.94608 68.0455 C 34.94408 68.6105 34.70308 69.1495 34.28208 69.5275 L 33.52508 70.2065 C 32.954078 70.7195 32.141077 70.8585 31.432077 70.5675 L 30.673077 70.2575 C 29.930076 69.9535 29.441076 69.2345 29.431076 68.4325 L 29.365076 63.2705 L 27.822076 62.9575 L 27.807076 70.9645 C 27.806076 71.6065 27.495075 72.2105 26.973075 72.5855 L 26.049075 73.2485 C 25.234074 73.8335 24.114074 73.7255 23.426074 72.9945 L 22.363073 71.8645 C 22.014073 71.4935 21.819073 71.0035 21.819073 70.4935 L 21.819073 61.8775 L 21.371073 61.8045 C 20.404072 61.6455 19.694072 60.8095 19.694072 59.8305 L 19.694072 54.7005 C 19.694072 54.5485 19.712072 54.3965 19.746072 54.2485 L 19.832072 53.8785 C 19.935072 53.4325 20.183072 53.0535 20.515072 52.7815 C 20.562072 52.6385 20.626072 52.4995 20.706072 52.3695 C 17.742071 49.5535 16.92407 45.6935 16.50607 43.7255 C 15.51907 39.0435 12.520069 24.8165 27.933076 15.2505 C 28.665076 14.7045 29.298076 14.2935 30.089077 14.2935 C 30.676077 14.2935 31.290077 14.5805 31.685077 15.0255 C 32.958078 13.4585 34.30108 12.1585 35.44108 11.8275 C 35.50808 11.8055 35.57508 11.7715 35.64708 11.7385 C 36.11608 11.5275 36.90108 11.1755 38.10508 11.1755 C 38.90408 11.1755 39.78408 11.3285 40.79708 11.6435 C 41.36008 11.8185 41.90308 12.1375 42.42408 12.5745 C 42.89708 12.0155 43.69008 11.7405 44.412083 11.8955 C 44.452083 11.9045 48.047084 12.7665 51.227086 15.0505 C 51.645086 14.4515 52.416086 14.0985 53.140087 14.1785 C 58.46609 14.7565 62.81609 17.5395 65.72209 22.2255 C 69.78509 28.7795 70.08709 37.4515 68.30909 42.2825 C 68.21809 42.5585 68.16509 42.9225 68.13809 43.1855 C 68.20909 43.4495 68.22509 43.7195 68.18809 43.9795 C 68.26709 44.2185 68.30009 44.4725 68.28309 44.7295 L 68.00009 49.0565 C 67.99209 49.1675 67.97609 49.2765 67.95109 49.3835 L 67.95709 49.4155 L 68.02809 49.7815 C 68.05809 49.9315 68.06909 50.0835 68.06409 50.2345 L 68.05509 50.5075 L 68.14809 51.4365 C 68.15309 51.4865 68.15609 51.5365 68.15709 51.5875 L 68.34509 59.1075 C 68.35109 59.3225 68.32109 59.5365 68.25809 59.7425 L 67.84409 61.1005 C 67.57009 61.9915 66.72609 62.5625 65.78609 62.5105 L 64.73109 62.4335 C 63.71409 62.3595 62.91409 61.5305 62.87709 60.5105 L 62.65509 54.3355 L 62.13409 54.6945 L 62.16809 55.4805 L 62.35809 63.0395 C 62.36409 63.2545 62.33509 63.4675 62.27209 63.6725 L 61.86009 65.0265 C 61.59009 65.9185 60.73309 66.4995 59.81009 66.4395 L 58.75009 66.3665 C 57.73009 66.2965 56.92909 65.4695 56.89009 64.4485 L 56.65009 58.2485 L 56.00909 58.6735 L 56.00609 58.7715 L 56.20809 66.8685 C 56.21409 67.0825 56.18509 67.2955 56.12309 67.4995 L 55.71109 68.8565 C 55.43909 69.7505 54.59109 70.3275 53.65309 70.2705 L 52.597086 70.1945 C 51.579086 70.1215 50.780086 69.2945 50.741086 68.2745 L 50.506085 61.9915 L 49.697085 62.5005 L 49.695085 62.9565 L 49.880085 70.4185 C 49.886085 70.6345 49.856085 70.8485 49.793085 71.0545 L 49.377085 72.4115 C 49.118085 73.2565 48.338084 73.8255 47.466084 73.8255 M 40.39408 68.7475 C 40.79408 68.7475 41.19008 68.8675 41.52808 69.1005 C 42.04908 69.4585 42.37008 70.0425 42.39308 70.6745 L 42.43808 71.8975 C 42.51408 73.9275 44.099083 75.5675 46.125084 75.7135 L 47.180084 75.7885 C 47.280084 75.7965 47.374084 75.7995 47.468084 75.7995 C 49.052085 75.7995 50.481085 74.8615 51.110086 73.4095 C 51.447086 72.6295 52.245086 72.1535 53.087087 72.2095 L 53.513087 72.2395 C 53.614087 72.2475 53.70709 72.2505 53.80109 72.2505 C 55.44109 72.2505 56.93309 71.2205 57.51409 69.6865 C 57.82409 68.8635 58.64609 68.3345 59.51609 68.3985 L 59.66309 68.4085 C 59.76409 68.4165 59.85709 68.4195 59.94909 68.4195 C 61.61609 68.4195 63.11709 67.3655 63.68409 65.7985 C 63.98109 64.9735 64.79609 64.4605 65.66009 64.4795 C 67.51109 64.5785 69.19009 63.4455 69.72909 61.6785 L 70.14609 60.3185 C 70.27009 59.9125 70.32809 59.4875 70.31809 59.0585 L 70.13209 51.5395 C 70.12909 51.4435 70.12409 51.3475 70.11309 51.2505 L 70.04509 50.5715 C 70.03509 50.4675 70.03209 50.3625 70.03809 50.2585 C 70.04409 50.0235 70.02909 49.7875 69.99309 49.5565 C 69.97009 49.4105 69.96409 49.2635 69.97309 49.1155 L 70.25309 44.8595 C 70.27309 44.5585 70.25909 44.2515 70.21009 43.9505 C 70.19409 43.8555 70.18609 43.7605 70.18409 43.6635 C 70.18309 43.5845 70.17809 43.5055 70.17309 43.4265 C 70.15409 43.1605 70.18909 42.8945 70.27509 42.6425 C 72.114095 37.2505 71.717095 28.1475 67.39909 21.1855 C 64.16409 15.9645 59.30609 12.8625 53.352087 12.2155 C 52.842086 12.1595 52.327086 12.2025 51.843086 12.3375 C 51.339086 12.4775 50.798086 12.4145 50.339085 12.1605 C 47.458084 10.5675 44.843083 9.9695 44.816083 9.9635 C 44.257083 9.8425 43.62408 9.8485 43.03608 9.9925 C 42.63308 10.0945 42.20608 10.0635 41.81908 9.9105 C 41.67408 9.8525 41.52708 9.8035 41.37708 9.7565 C 40.17608 9.3835 39.10308 9.2005 38.10508 9.2005 C 36.47808 9.2005 35.41308 9.6805 34.84008 9.9375 C 34.79008 9.9605 34.73908 9.9805 34.68708 9.9985 C 33.86908 10.2885 32.956078 10.8975 31.974077 11.8085 C 31.562077 12.1905 31.011077 12.3855 30.445077 12.3345 C 30.328077 12.3245 30.209077 12.3185 30.089077 12.3185 C 28.758076 12.3185 27.719076 12.9535 26.878075 13.5745 C 26.837075 13.6045 26.795075 13.6335 26.752075 13.6605 C 15.85207 20.4885 11.754069 30.7395 14.57307 44.1295 C 14.93107 45.8095 15.59707 48.9405 17.605071 51.7825 C 17.934071 52.2475 18.048071 52.8305 17.921071 53.3845 C 17.917071 53.4025 17.913071 53.4205 17.909071 53.4385 L 17.822071 53.8085 C 17.756071 54.0945 17.722071 54.3955 17.722071 54.6995 L 17.721071 59.8295 C 17.721071 61.0055 18.236071 62.1135 19.134072 62.8705 C 19.585072 63.2505 19.846072 63.8095 19.846072 64.3995 L 19.846072 70.4935 C 19.846072 71.5095 20.229072 72.4755 20.925073 73.2165 L 21.988073 74.3465 C 23.308074 75.7485 25.630075 75.9775 27.198075 74.8515 L 28.123076 74.1885 C 28.468076 73.9425 28.767076 73.6465 29.015076 73.3065 C 29.503076 72.6365 30.354077 72.3385 31.153077 72.5545 C 32.443078 72.9045 33.85508 72.5645 34.84408 71.6765 L 35.59908 70.9975 C 35.90808 70.7215 36.16808 70.4025 36.37208 70.0515 C 36.75408 69.3955 37.47608 69.0095 38.23008 69.0615 C 38.74608 69.0945 39.26008 69.0205 39.74808 68.8545 C 39.95808 68.7825 40.17708 68.7475 40.39408 68.7475 M 47.468084 79.7995 C 47.276084 79.7995 47.083084 79.7925 46.889084 79.7775 L 45.839083 79.7035 C 42.30808 79.4495 39.44508 76.9335 38.65308 73.6085 C 38.53008 73.7335 38.40308 73.8555 38.27108 73.9745 L 37.51608 74.6525 C 35.85208 76.1435 33.61708 76.8735 31.393077 76.6515 C 31.101077 76.9385 30.786077 77.2025 30.451077 77.4415 L 29.530076 78.1015 C 28.168076 79.0795 26.561075 79.5975 24.885074 79.5975 C 22.693073 79.5975 20.576072 78.6825 19.075072 77.0865 L 18.012071 75.9565 C 16.61507 74.4725 15.84607 72.5315 15.84607 70.4935 L 15.84607 65.2515 C 14.48507 63.7855 13.72107 61.8565 13.72107 59.8295 L 13.72207 54.6995 C 13.72207 54.2435 13.76007 53.7895 13.83707 53.3445 C 11.743069 50.0515 11.021068 46.6545 10.661068 44.9605 C 7.464067 29.7775 12.143069 18.1225 24.563074 10.3105 C 25.341075 9.7385 27.235075 8.3905 29.879076 8.3215 C 31.024077 7.3565 32.161077 6.6645 33.269078 6.2585 C 34.02908 5.9175 35.69708 5.2005 38.10508 5.2005 C 39.51208 5.2005 40.97308 5.4415 42.57208 5.9385 C 42.61608 5.9535 42.66008 5.9675 42.70408 5.9805 C 43.69008 5.8195 44.710083 5.8465 45.681083 6.0585 C 45.994083 6.1285 48.565085 6.7325 51.601086 8.3005 C 52.315086 8.1805 53.061087 8.1595 53.78509 8.2385 C 61.00809 9.0235 66.89209 12.7715 70.800094 19.0785 C 75.8911 27.2895 76.1291 37.4005 74.1911 43.5365 C 74.2621 44.0625 74.2791 44.5955 74.2451 45.1235 L 73.9771 49.1745 C 74.0241 49.5485 74.0451 49.9265 74.0381 50.3025 L 74.0931 50.8415 C 74.1121 51.0325 74.1251 51.2345 74.1301 51.4375 L 74.3161 58.9595 C 74.3381 59.8195 74.2221 60.6715 73.9721 61.4895 L 73.555095 62.8485 C 72.615095 65.9255 69.98209 68.0825 66.85009 68.4365 C 65.55509 70.6725 63.22709 72.1675 60.62809 72.3905 C 59.25509 74.6595 56.79609 76.1405 54.10409 76.2445 C 52.645086 78.4405 50.168085 79.7995 47.468084 79.7995" fill="white"/>
          </g>
          <g id="Graphic_3">
            <path d="M 47.467784 73.8158 C 47.419784 73.8158 47.371784 73.8158 47.323784 73.8108 L 46.267784 73.7358 C 45.251783 73.6638 44.454783 72.8388 44.417783 71.8248 L 44.195783 65.8468 C 43.99378 65.9138 43.78478 65.9488 43.57178 65.9488 C 43.43678 65.9488 43.30278 65.9348 43.16978 65.9078 L 41.07778 65.4768 C 40.94878 65.6718 40.78878 65.8448 40.59578 65.9888 L 39.64878 66.6928 C 39.29278 66.9568 38.87478 67.0858 38.46078 67.0858 C 37.90478 67.0858 37.35378 66.8518 36.95978 66.4048 L 36.53078 65.9138 C 36.23978 65.5778 36.06778 65.1538 36.04278 64.7118 L 36.02778 64.4388 L 34.94878 64.2178 L 34.93678 68.0458 C 34.93578 68.6088 34.69478 69.1438 34.27778 69.5208 L 33.52178 70.1998 C 33.149778 70.5328 32.673778 70.7088 32.193777 70.7088 C 31.935777 70.7088 31.679777 70.6598 31.432777 70.5588 L 30.672777 70.2468 C 29.934777 69.9448 29.450776 69.2298 29.439776 68.4308 L 29.373776 63.2638 L 27.813776 62.9468 L 27.796776 70.9628 C 27.796776 71.6048 27.487775 72.2038 26.966775 72.5778 L 26.041775 73.2418 C 25.693775 73.4918 25.286774 73.6138 24.882774 73.6138 C 24.349774 73.6138 23.821774 73.4018 23.430774 72.9868 L 22.368773 71.8558 C 22.022773 71.4858 21.829773 71.0008 21.829773 70.4918 L 21.829773 61.8728 L 21.368773 61.7948 C 20.408772 61.6368 19.702772 60.8048 19.702772 59.8308 L 19.702772 54.6998 C 19.702772 54.5458 19.720772 54.3948 19.755772 54.2478 L 19.840772 53.8788 C 19.948772 53.4198 20.207772 53.0338 20.551772 52.7638 C 20.595772 52.6288 20.655772 52.4998 20.727773 52.3778 C 17.753771 49.5618 16.93177 45.6968 16.51477 43.7248 C 15.52777 39.0418 12.529769 24.8118 27.952776 15.2478 C 28.677776 14.7068 29.306776 14.3018 30.090777 14.3018 C 30.678777 14.3018 31.293777 14.5898 31.684777 15.0408 C 32.960778 13.4678 34.30478 12.1648 35.44678 11.8358 C 35.50878 11.8138 35.57378 11.7828 35.64678 11.7488 C 36.11578 11.5388 36.90178 11.1848 38.10378 11.1848 C 38.90378 11.1848 39.78178 11.3368 40.79478 11.6518 C 41.35978 11.8268 41.90278 12.1478 42.42378 12.5868 C 42.80878 12.1278 43.39478 11.8608 43.99178 11.8608 C 44.131783 11.8608 44.269783 11.8748 44.405783 11.9038 C 44.446783 11.9128 48.041784 12.7668 51.228786 15.0618 C 51.607786 14.5158 52.267786 14.1748 52.930786 14.1748 C 52.999787 14.1748 53.068787 14.1788 53.134787 14.1858 C 58.46279 14.7628 62.81079 17.5458 65.71679 22.2318 C 69.77779 28.7858 70.07879 37.4528 68.30079 42.2798 C 68.20879 42.5578 68.15579 42.9198 68.12979 43.1828 C 68.20279 43.4488 68.21879 43.7198 68.18179 43.9838 C 68.25979 44.2198 68.29179 44.4738 68.27579 44.7308 L 67.98979 49.0568 C 67.98479 49.1688 67.96579 49.2768 67.94079 49.3818 L 68.01879 49.7758 C 68.04979 49.9248 68.06079 50.0828 68.05679 50.2368 L 68.04579 50.5078 L 68.13979 51.4388 C 68.14479 51.4878 68.14679 51.5378 68.14979 51.5878 L 68.33679 59.1088 C 68.34179 59.3228 68.31279 59.5378 68.25179 59.7408 L 67.83579 61.0978 C 67.57979 61.9388 66.80079 62.5058 65.92879 62.5058 C 65.88279 62.5058 65.83279 62.5058 65.78479 62.5028 L 64.73079 62.4238 C 63.71579 62.3498 62.92179 61.5258 62.88379 60.5078 L 62.66179 54.3208 L 62.12179 54.6898 L 62.15679 55.4828 L 62.35079 63.0398 C 62.35579 63.2528 62.32579 63.4668 62.26379 63.6698 L 61.85179 65.0258 C 61.59479 65.8698 60.81679 66.4368 59.94779 66.4368 C 59.90179 66.4368 59.85179 66.4368 59.80479 66.4318 L 58.74679 66.3568 C 57.73479 66.2848 56.93779 65.4618 56.89679 64.4478 L 56.65779 58.2328 L 55.99979 58.6698 L 55.99579 58.7728 L 56.01279 59.3358 L 56.19879 66.8688 C 56.20379 67.0808 56.17679 67.2938 56.11379 67.4958 L 55.70279 68.8528 C 55.44679 69.6958 54.67179 70.2658 53.80079 70.2658 C 53.75179 70.2658 53.70279 70.2658 53.65579 70.2618 L 52.596786 70.1868 C 51.584786 70.1148 50.784786 69.2908 50.746786 68.2748 L 50.513785 61.9758 L 49.687785 62.4938 L 49.685785 62.9578 L 49.873785 70.4178 C 49.877785 70.6318 49.850785 70.8448 49.786785 71.0508 L 49.368785 72.4088 C 49.113785 73.2498 48.334784 73.8158 47.467784 73.8158 Z" fill="white"/>
          </g>
          <g id="Graphic_2">
            <path d="M 38.10548 9.1928 C 36.47348 9.1928 35.40448 9.6728 34.83048 9.9318 L 34.75348 9.9658 C 33.88848 10.2528 32.738478 10.9558 31.278477 12.4838 C 30.898477 12.3708 30.500477 12.3098 30.088477 12.3098 C 28.643476 12.3098 27.557475 13.0568 26.812475 13.6118 C 15.85947 20.4448 11.739469 30.7128 14.56447 44.1308 C 14.97247 46.0498 15.72147 49.5758 18.199471 52.5868 C 18.070471 52.8518 17.970471 53.1338 17.900471 53.4318 L 17.815471 53.8018 C 17.747471 54.0958 17.712471 54.3968 17.712471 54.6998 L 17.711471 59.8298 C 17.711471 61.3418 18.558472 62.6808 19.837472 63.3538 L 19.837472 70.4938 C 19.837472 71.5068 20.224472 72.4838 20.917473 73.2218 L 21.980473 74.3518 C 22.760473 75.1788 23.818474 75.6058 24.884474 75.6058 C 25.691475 75.6058 26.504475 75.3608 27.203475 74.8588 L 28.127476 74.1968 C 28.889476 73.6498 29.425476 72.8598 29.659476 71.9738 C 29.744476 72.0158 29.832476 72.0548 29.919476 72.0918 L 30.679477 72.4028 C 31.167477 72.6028 31.679477 72.7008 32.188477 72.7008 C 33.154478 72.7008 34.10548 72.3498 34.84848 71.6828 L 35.60648 71.0038 C 36.26948 70.4078 36.71048 69.6108 36.86548 68.7458 C 37.36948 68.9658 37.91448 69.0778 38.46048 69.0778 C 39.28948 69.0778 40.12148 68.8208 40.83248 68.2938 L 41.71248 67.6398 L 42.27648 67.7558 L 42.42948 71.8978 C 42.50348 73.9278 44.096483 75.5768 46.124484 75.7218 L 47.179484 75.7968 C 47.275484 75.8038 47.372484 75.8078 47.466484 75.8078 C 49.203485 75.8078 50.755486 74.6758 51.272486 72.9948 L 51.575486 72.0088 C 51.856486 72.0948 52.150486 72.1508 52.455486 72.1728 L 53.511487 72.2488 C 53.609487 72.2558 53.70349 72.2588 53.79849 72.2588 C 55.54149 72.2588 57.09449 71.1208 57.60849 69.4328 L 57.96849 68.2468 C 58.17749 68.2968 58.39049 68.3298 58.61149 68.3438 L 59.66949 68.4188 C 59.76249 68.4238 59.85549 68.4278 59.94849 68.4278 C 61.68849 68.4278 63.24449 67.2908 63.75649 65.6048 L 64.13749 64.3528 C 64.28549 64.3808 64.43549 64.3998 64.58949 64.4118 L 65.64449 64.4878 C 65.74149 64.4948 65.83649 64.4978 65.93149 64.4978 C 67.67049 64.4978 69.22349 63.3638 69.73849 61.6798 L 70.15449 60.3228 C 70.27949 59.9138 70.33749 59.4868 70.32749 59.0588 L 70.14049 51.5388 C 70.13649 51.4388 70.13049 51.3388 70.12149 51.2398 L 70.04149 50.4388 L 70.04549 50.2968 C 70.05649 49.9948 70.03149 49.6928 69.97249 49.3968 L 69.96249 49.3458 C 69.96849 49.2948 69.97449 49.2408 69.97649 49.1868 L 70.26149 44.8608 C 70.28549 44.5018 70.26149 44.1468 70.19149 43.8038 C 70.19549 43.5778 70.18149 43.3498 70.14849 43.1228 C 70.16449 43.0318 70.18149 42.9468 70.20149 42.8808 C 72.107495 37.5908 71.777495 28.2298 67.40849 21.1818 C 64.16849 15.9568 59.30849 12.8528 53.352487 12.2078 C 53.210487 12.1918 53.056487 12.1838 52.913486 12.1838 C 52.280486 12.1838 51.668486 12.3328 51.119486 12.6048 C 47.946484 10.6768 44.870483 9.9658 44.832483 9.9578 C 44.552483 9.8978 44.271483 9.8688 43.99248 9.8678 C 43.45748 9.8678 42.92748 9.9768 42.43848 10.1798 C 42.09548 10.0058 41.74648 9.8618 41.38648 9.7508 C 40.17948 9.3748 39.10548 9.1928 38.10548 9.1928 M 38.10548 13.1748 C 38.63748 13.1748 39.31448 13.2768 40.20248 13.5528 C 45.421483 15.1778 49.308485 36.7598 49.308485 36.7598 C 48.804485 31.1328 48.121484 26.0998 48.121484 26.0998 C 47.599484 22.2578 43.54348 13.8498 43.97648 13.8498 L 43.98748 13.8498 C 44.265483 13.9108 48.246484 14.9588 51.135486 17.5328 C 55.00949 20.9908 58.06049 26.2328 58.41649 26.3358 C 58.42149 26.3378 58.43149 26.3378 58.43949 26.3378 C 58.75949 26.3378 57.19749 23.7948 55.64249 21.2518 C 54.08949 18.7108 52.548486 16.1668 52.913486 16.1668 L 52.923486 16.1668 C 66.48149 17.6388 69.03349 34.5248 66.43149 41.5918 C 66.15049 42.4408 66.10749 43.4368 66.11349 43.5018 L 66.20749 43.7108 L 65.93449 43.8488 C 65.45549 44.4108 51.164486 53.7478 51.164486 53.7478 L 66.28749 44.5988 L 66.00349 48.9248 C 65.50249 48.4798 64.66049 47.7328 64.66049 47.7328 L 65.95949 49.6288 L 65.98849 49.7688 L 65.98649 49.7888 L 65.99449 49.7968 L 66.06549 50.1638 L 66.05049 50.5718 L 66.15849 51.6368 L 66.34549 59.1578 L 65.93049 60.5148 L 64.87649 60.4388 L 64.51549 50.3938 L 64.14749 50.5868 L 64.14749 50.8998 L 63.92749 51.0308 L 60.53349 53.3688 L 60.51849 52.7588 L 58.81049 51.2408 L 60.11249 53.1368 L 60.14349 53.8558 L 60.14649 53.8558 L 60.12349 54.5048 L 60.16949 55.5688 L 60.35949 63.0898 L 59.94749 64.4448 L 58.88749 64.3718 L 58.49649 54.1908 L 58.10549 54.5148 L 58.10549 54.9058 L 57.58749 55.2288 L 54.43149 57.3198 L 54.42049 56.7688 C 54.41849 56.7688 52.710486 55.2508 52.710486 55.2508 L 54.01149 57.1448 L 54.03949 57.7388 L 54.00449 58.7668 L 54.02249 59.3958 L 54.20949 66.9188 L 53.79649 68.2758 L 52.740486 68.1998 L 52.437486 60.1318 L 52.326486 58.0058 L 51.920486 58.2908 L 51.888486 58.7598 L 51.396486 59.0688 L 48.105484 61.1388 L 48.089484 60.5078 L 46.382484 58.9908 L 47.685484 60.8858 L 47.707484 61.3918 L 47.701484 61.3938 L 47.699484 62.0968 L 47.695484 62.9478 L 47.880484 70.4678 L 47.464484 71.8258 L 46.409484 71.7498 L 46.028483 61.4848 L 45.622483 61.8608 L 45.650483 62.5808 L 45.402483 62.7418 L 43.57248 63.9578 L 39.43748 63.1048 L 39.40848 64.3908 L 38.45948 65.0948 L 38.03148 64.6048 L 37.93548 62.7998 L 32.967478 61.7788 L 32.946478 68.0388 L 32.189477 68.7168 L 31.430477 68.4068 L 31.343477 61.6318 L 25.826475 60.5108 L 25.806475 70.9608 L 24.882474 71.6238 L 23.819474 70.4938 L 23.819474 60.1788 L 21.694473 59.8308 L 21.694473 54.7008 L 21.780473 54.3308 L 39.33748 56.6918 L 22.413473 53.4118 C 22.416473 53.4088 22.434473 53.3898 22.468473 53.3578 L 22.606473 53.3438 C 23.218474 52.6018 23.222474 52.4548 23.130474 52.0058 C 23.130474 51.9918 23.133474 51.9778 23.130474 51.9638 L 23.123474 51.9608 C 23.109474 51.8958 23.094474 51.8198 23.080474 51.7408 C 19.852472 49.4438 18.963472 45.6728 18.462472 43.3108 C 17.32447 37.9078 15.26747 25.4188 29.060476 16.9048 C 29.618476 16.4858 29.938477 16.2938 30.088477 16.2938 C 30.962477 16.2938 26.033475 22.8188 27.386475 29.8578 C 27.188475 28.8048 27.892476 24.5828 29.103476 22.4668 C 31.678477 17.9788 34.67748 14.1308 35.99848 13.7488 C 36.52048 13.5998 37.00548 13.1748 38.10548 13.1748" fill="#d9213b"/>
          </g>
        </g>
        <g id="Graphic_8">
          <rect x="0" y="0" width="85" height="85" stroke="#d9203b" stroke-linecap="round" stroke-linejoin="round" stroke-width="4"/>
        </g>
      </g>
    </g>
  </g>
</svg>
