<?xml version="1.0" encoding="UTF-8" standalone="no"?>
<!DOCTYPE svg PUBLIC "-//W3C//DTD SVG 1.1//EN" "http://www.w3.org/Graphics/SVG/1.1/DTD/svg11.dtd">
<svg xmlns:xl="http://www.w3.org/1999/xlink" xmlns:dc="http://purl.org/dc/elements/1.1/" version="1.1" xmlns="http://www.w3.org/2000/svg" viewBox="0 0 85 85" width="85" height="85">
  <defs/>
  <metadata> Produced by OmniGraffle 7.19.4\n2022-07-27 05:51:54 +0000</metadata>
  <g id="Canvas_1" stroke-opacity="1" stroke="none" stroke-dasharray="none" fill="none" fill-opacity="1">
    <title>Canvas 1</title>
    <g id="Canvas_1_Layer_1">
      <title>Layer 1</title>
      <g id="Group_9">
        <g id="Group_7">
          <g id="Graphic_3">
            <path d="M 47.467784 73.8158 C 47.419784 73.8158 47.371784 73.8158 47.323784 73.8108 L 46.267784 73.7358 C 45.251783 73.6638 44.454783 72.8388 44.417783 71.8248 L 44.195783 65.8468 C 43.99378 65.9138 43.78478 65.9488 43.57178 65.9488 C 43.43678 65.9488 43.30278 65.9348 43.16978 65.9078 L 41.07778 65.4768 C 40.94878 65.6718 40.78878 65.8448 40.59578 65.9888 L 39.64878 66.6928 C 39.29278 66.9568 38.87478 67.0858 38.46078 67.0858 C 37.90478 67.0858 37.35378 66.8518 36.95978 66.4048 L 36.53078 65.9138 C 36.23978 65.5778 36.06778 65.1538 36.04278 64.7118 L 36.02778 64.4388 L 34.94878 64.2178 L 34.93678 68.0458 C 34.93578 68.6088 34.69478 69.1438 34.27778 69.5208 L 33.52178 70.1998 C 33.149778 70.5328 32.673778 70.7088 32.193777 70.7088 C 31.935777 70.7088 31.679777 70.6598 31.432777 70.5588 L 30.672777 70.2468 C 29.934777 69.9448 29.450776 69.2298 29.439776 68.4308 L 29.373776 63.2638 L 27.813776 62.9468 L 27.796776 70.9628 C 27.796776 71.6048 27.487775 72.2038 26.966775 72.5778 L 26.041775 73.2418 C 25.693775 73.4918 25.286774 73.6138 24.882774 73.6138 C 24.349774 73.6138 23.821774 73.4018 23.430774 72.9868 L 22.368773 71.8558 C 22.022773 71.4858 21.829773 71.0008 21.829773 70.4918 L 21.829773 61.8728 L 21.368773 61.7948 C 20.408772 61.6368 19.702772 60.8048 19.702772 59.8308 L 19.702772 54.6998 C 19.702772 54.5458 19.720772 54.3948 19.755772 54.2478 L 19.840772 53.8788 C 19.948772 53.4198 20.207772 53.0338 20.551772 52.7638 C 20.595772 52.6288 20.655772 52.4998 20.727773 52.3778 C 17.753771 49.5618 16.93177 45.6968 16.51477 43.7248 C 15.52777 39.0418 12.529769 24.8118 27.952776 15.2478 C 28.677776 14.7068 29.306776 14.3018 30.090777 14.3018 C 30.678777 14.3018 31.293777 14.5898 31.684777 15.0408 C 32.960778 13.4678 34.30478 12.1648 35.44678 11.8358 C 35.50878 11.8138 35.57378 11.7828 35.64678 11.7488 C 36.11578 11.5388 36.90178 11.1848 38.10378 11.1848 C 38.90378 11.1848 39.78178 11.3368 40.79478 11.6518 C 41.35978 11.8268 41.90278 12.1478 42.42378 12.5868 C 42.80878 12.1278 43.39478 11.8608 43.99178 11.8608 C 44.131783 11.8608 44.269783 11.8748 44.405783 11.9038 C 44.446783 11.9128 48.041784 12.7668 51.228786 15.0618 C 51.607786 14.5158 52.267786 14.1748 52.930786 14.1748 C 52.999787 14.1748 53.068787 14.1788 53.134787 14.1858 C 58.46279 14.7628 62.81079 17.5458 65.71679 22.2318 C 69.77779 28.7858 70.07879 37.4528 68.30079 42.2798 C 68.20879 42.5578 68.15579 42.9198 68.12979 43.1828 C 68.20279 43.4488 68.21879 43.7198 68.18179 43.9838 C 68.25979 44.2198 68.29179 44.4738 68.27579 44.7308 L 67.98979 49.0568 C 67.98479 49.1688 67.96579 49.2768 67.94079 49.3818 L 68.01879 49.7758 C 68.04979 49.9248 68.06079 50.0828 68.05679 50.2368 L 68.04579 50.5078 L 68.13979 51.4388 C 68.14479 51.4878 68.14679 51.5378 68.14979 51.5878 L 68.33679 59.1088 C 68.34179 59.3228 68.31279 59.5378 68.25179 59.7408 L 67.83579 61.0978 C 67.57979 61.9388 66.80079 62.5058 65.92879 62.5058 C 65.88279 62.5058 65.83279 62.5058 65.78479 62.5028 L 64.73079 62.4238 C 63.71579 62.3498 62.92179 61.5258 62.88379 60.5078 L 62.66179 54.3208 L 62.12179 54.6898 L 62.15679 55.4828 L 62.35079 63.0398 C 62.35579 63.2528 62.32579 63.4668 62.26379 63.6698 L 61.85179 65.0258 C 61.59479 65.8698 60.81679 66.4368 59.94779 66.4368 C 59.90179 66.4368 59.85179 66.4368 59.80479 66.4318 L 58.74679 66.3568 C 57.73479 66.2848 56.93779 65.4618 56.89679 64.4478 L 56.65779 58.2328 L 55.99979 58.6698 L 55.99579 58.7728 L 56.01279 59.3358 L 56.19879 66.8688 C 56.20379 67.0808 56.17679 67.2938 56.11379 67.4958 L 55.70279 68.8528 C 55.44679 69.6958 54.67179 70.2658 53.80079 70.2658 C 53.75179 70.2658 53.70279 70.2658 53.65579 70.2618 L 52.596786 70.1868 C 51.584786 70.1148 50.784786 69.2908 50.746786 68.2748 L 50.513785 61.9758 L 49.687785 62.4938 L 49.685785 62.9578 L 49.873785 70.4178 C 49.877785 70.6318 49.850785 70.8448 49.786785 71.0508 L 49.368785 72.4088 C 49.113785 73.2498 48.334784 73.8158 47.467784 73.8158 Z" fill="white"/>
          </g>
          <g id="Graphic_2">
            <path d="M 38.10548 9.1928 C 36.47348 9.1928 35.40448 9.6728 34.83048 9.9318 L 34.75348 9.9658 C 33.88848 10.2528 32.738478 10.9558 31.278477 12.4838 C 30.898477 12.3708 30.500477 12.3098 30.088477 12.3098 C 28.643476 12.3098 27.557475 13.0568 26.812475 13.6118 C 15.85947 20.4448 11.739469 30.7128 14.56447 44.1308 C 14.97247 46.0498 15.72147 49.5758 18.199471 52.5868 C 18.070471 52.8518 17.970471 53.1338 17.900471 53.4318 L 17.815471 53.8018 C 17.747471 54.0958 17.712471 54.3968 17.712471 54.6998 L 17.711471 59.8298 C 17.711471 61.3418 18.558472 62.6808 19.837472 63.3538 L 19.837472 70.4938 C 19.837472 71.5068 20.224472 72.4838 20.917473 73.2218 L 21.980473 74.3518 C 22.760473 75.1788 23.818474 75.6058 24.884474 75.6058 C 25.691475 75.6058 26.504475 75.3608 27.203475 74.8588 L 28.127476 74.1968 C 28.889476 73.6498 29.425476 72.8598 29.659476 71.9738 C 29.744476 72.0158 29.832476 72.0548 29.919476 72.0918 L 30.679477 72.4028 C 31.167477 72.6028 31.679477 72.7008 32.188477 72.7008 C 33.154478 72.7008 34.10548 72.3498 34.84848 71.6828 L 35.60648 71.0038 C 36.26948 70.4078 36.71048 69.6108 36.86548 68.7458 C 37.36948 68.9658 37.91448 69.0778 38.46048 69.0778 C 39.28948 69.0778 40.12148 68.8208 40.83248 68.2938 L 41.71248 67.6398 L 42.27648 67.7558 L 42.42948 71.8978 C 42.50348 73.9278 44.096483 75.5768 46.124484 75.7218 L 47.179484 75.7968 C 47.275484 75.8038 47.372484 75.8078 47.466484 75.8078 C 49.203485 75.8078 50.755486 74.6758 51.272486 72.9948 L 51.575486 72.0088 C 51.856486 72.0948 52.150486 72.1508 52.455486 72.1728 L 53.511487 72.2488 C 53.609487 72.2558 53.70349 72.2588 53.79849 72.2588 C 55.54149 72.2588 57.09449 71.1208 57.60849 69.4328 L 57.96849 68.2468 C 58.17749 68.2968 58.39049 68.3298 58.61149 68.3438 L 59.66949 68.4188 C 59.76249 68.4238 59.85549 68.4278 59.94849 68.4278 C 61.68849 68.4278 63.24449 67.2908 63.75649 65.6048 L 64.13749 64.3528 C 64.28549 64.3808 64.43549 64.3998 64.58949 64.4118 L 65.64449 64.4878 C 65.74149 64.4948 65.83649 64.4978 65.93149 64.4978 C 67.67049 64.4978 69.22349 63.3638 69.73849 61.6798 L 70.15449 60.3228 C 70.27949 59.9138 70.33749 59.4868 70.32749 59.0588 L 70.14049 51.5388 C 70.13649 51.4388 70.13049 51.3388 70.12149 51.2398 L 70.04149 50.4388 L 70.04549 50.2968 C 70.05649 49.9948 70.03149 49.6928 69.97249 49.3968 L 69.96249 49.3458 C 69.96849 49.2948 69.97449 49.2408 69.97649 49.1868 L 70.26149 44.8608 C 70.28549 44.5018 70.26149 44.1468 70.19149 43.8038 C 70.19549 43.5778 70.18149 43.3498 70.14849 43.1228 C 70.16449 43.0318 70.18149 42.9468 70.20149 42.8808 C 72.107495 37.5908 71.777495 28.2298 67.40849 21.1818 C 64.16849 15.9568 59.30849 12.8528 53.352487 12.2078 C 53.210487 12.1918 53.056487 12.1838 52.913486 12.1838 C 52.280486 12.1838 51.668486 12.3328 51.119486 12.6048 C 47.946484 10.6768 44.870483 9.9658 44.832483 9.9578 C 44.552483 9.8978 44.271483 9.8688 43.99248 9.8678 C 43.45748 9.8678 42.92748 9.9768 42.43848 10.1798 C 42.09548 10.0058 41.74648 9.8618 41.38648 9.7508 C 40.17948 9.3748 39.10548 9.1928 38.10548 9.1928 M 38.10548 13.1748 C 38.63748 13.1748 39.31448 13.2768 40.20248 13.5528 C 45.421483 15.1778 49.308485 36.7598 49.308485 36.7598 C 48.804485 31.1328 48.121484 26.0998 48.121484 26.0998 C 47.599484 22.2578 43.54348 13.8498 43.97648 13.8498 L 43.98748 13.8498 C 44.265483 13.9108 48.246484 14.9588 51.135486 17.5328 C 55.00949 20.9908 58.06049 26.2328 58.41649 26.3358 C 58.42149 26.3378 58.43149 26.3378 58.43949 26.3378 C 58.75949 26.3378 57.19749 23.7948 55.64249 21.2518 C 54.08949 18.7108 52.548486 16.1668 52.913486 16.1668 L 52.923486 16.1668 C 66.48149 17.6388 69.03349 34.5248 66.43149 41.5918 C 66.15049 42.4408 66.10749 43.4368 66.11349 43.5018 L 66.20749 43.7108 L 65.93449 43.8488 C 65.45549 44.4108 51.164486 53.7478 51.164486 53.7478 L 66.28749 44.5988 L 66.00349 48.9248 C 65.50249 48.4798 64.66049 47.7328 64.66049 47.7328 L 65.95949 49.6288 L 65.98849 49.7688 L 65.98649 49.7888 L 65.99449 49.7968 L 66.06549 50.1638 L 66.05049 50.5718 L 66.15849 51.6368 L 66.34549 59.1578 L 65.93049 60.5148 L 64.87649 60.4388 L 64.51549 50.3938 L 64.14749 50.5868 L 64.14749 50.8998 L 63.92749 51.0308 L 60.53349 53.3688 L 60.51849 52.7588 L 58.81049 51.2408 L 60.11249 53.1368 L 60.14349 53.8558 L 60.14649 53.8558 L 60.12349 54.5048 L 60.16949 55.5688 L 60.35949 63.0898 L 59.94749 64.4448 L 58.88749 64.3718 L 58.49649 54.1908 L 58.10549 54.5148 L 58.10549 54.9058 L 57.58749 55.2288 L 54.43149 57.3198 L 54.42049 56.7688 C 54.41849 56.7688 52.710486 55.2508 52.710486 55.2508 L 54.01149 57.1448 L 54.03949 57.7388 L 54.00449 58.7668 L 54.02249 59.3958 L 54.20949 66.9188 L 53.79649 68.2758 L 52.740486 68.1998 L 52.437486 60.1318 L 52.326486 58.0058 L 51.920486 58.2908 L 51.888486 58.7598 L 51.396486 59.0688 L 48.105484 61.1388 L 48.089484 60.5078 L 46.382484 58.9908 L 47.685484 60.8858 L 47.707484 61.3918 L 47.701484 61.3938 L 47.699484 62.0968 L 47.695484 62.9478 L 47.880484 70.4678 L 47.464484 71.8258 L 46.409484 71.7498 L 46.028483 61.4848 L 45.622483 61.8608 L 45.650483 62.5808 L 45.402483 62.7418 L 43.57248 63.9578 L 39.43748 63.1048 L 39.40848 64.3908 L 38.45948 65.0948 L 38.03148 64.6048 L 37.93548 62.7998 L 32.967478 61.7788 L 32.946478 68.0388 L 32.189477 68.7168 L 31.430477 68.4068 L 31.343477 61.6318 L 25.826475 60.5108 L 25.806475 70.9608 L 24.882474 71.6238 L 23.819474 70.4938 L 23.819474 60.1788 L 21.694473 59.8308 L 21.694473 54.7008 L 21.780473 54.3308 L 39.33748 56.6918 L 22.413473 53.4118 C 22.416473 53.4088 22.434473 53.3898 22.468473 53.3578 L 22.606473 53.3438 C 23.218474 52.6018 23.222474 52.4548 23.130474 52.0058 C 23.130474 51.9918 23.133474 51.9778 23.130474 51.9638 L 23.123474 51.9608 C 23.109474 51.8958 23.094474 51.8198 23.080474 51.7408 C 19.852472 49.4438 18.963472 45.6728 18.462472 43.3108 C 17.32447 37.9078 15.26747 25.4188 29.060476 16.9048 C 29.618476 16.4858 29.938477 16.2938 30.088477 16.2938 C 30.962477 16.2938 26.033475 22.8188 27.386475 29.8578 C 27.188475 28.8048 27.892476 24.5828 29.103476 22.4668 C 31.678477 17.9788 34.67748 14.1308 35.99848 13.7488 C 36.52048 13.5998 37.00548 13.1748 38.10548 13.1748" fill="#d9213b"/>
          </g>
        </g>
        <g id="Graphic_8"/>
      </g>
    </g>
  </g>
</svg>
