<?xml version="1.0" encoding="utf-8"?>
<!-- Generator: Adobe Illustrator 16.0.4, SVG Export Plug-In . SVG Version: 6.00 Build 0)  -->
<!DOCTYPE svg PUBLIC "-//W3C//DTD SVG 1.1//EN" "http://www.w3.org/Graphics/SVG/1.1/DTD/svg11.dtd">
<svg version="1.1" id="Layer_1" xmlns="http://www.w3.org/2000/svg" xmlns:xlink="http://www.w3.org/1999/xlink" x="0px" y="0px"
	 width="595.28px" height="841.89px" viewBox="0 0 595.28 841.89" enable-background="new 0 0 595.28 841.89" xml:space="preserve">
<path fill="none" stroke="#E01F30" stroke-miterlimit="10" d="M320.743,366.898h-0.022c-2.721,0.518-0.637,3.685-2.304,3.602
	c-1.881-0.094-2.417-0.917-4.917-3.083s-7.354-4.877-7.916-5h-0.02c-0.879,0-4.314-1.571-5.933,3.708
	c-2.507,4-7.79-5.279-8.866-5.279c-2.225,0-3.206,0.86-4.266,1.16c-1.333,0.388-5.191,6.429-7.625,7.619
	c-2.435,1.19-3.445-2.47-4.33-2.47c-0.302,0-0.945,0.39-2.08,1.238c-27.901,17.222-23.74,42.488-21.436,53.419
	c1.013,4.779,2.812,12.408,9.338,17.057c0.035,0.158,0.061,0.311,0.088,0.443l0.018,0.006c0.004,0.028,0,0.056,0,0.088
	c0.185,0.906,0.176,1.205-1.062,2.707l-0.28,0.025c-0.067,0.068-0.104,0.1-0.108,0.111l-1.283,1.855l-0.171,0.751v10.376
	l4.298,0.704v20.869l2.152,2.285l4.358-1.035l0.041-21.139l8.671,1.96l0.174,13.707l1.537,0.629l4.408-0.799l0.043-12.664
	l7.175,1.489l0.19,3.653l3.49,1.548l1.92-1.423l0.059-2.601l5.741,1.167l3.702-2.463l0.507-0.324l0.812-1.371l0.719,19.92
	l2.134,0.156l3.636-4.585l-0.374-15.214l0.009-1.721l0.004-1.42l0.011-0.008l0.01-0.174l0.797-0.336l3.864-2.353l0.995-0.625
	l0.938-0.673l0.175,3.449l0.612,16.32l4.707-1.51l0.836-2.744l-0.38-15.223l-0.036-1.271l0.068-2.081l-0.007-0.35l0.802-0.496
	l2.166-1.403l1.045-0.657l2.538-1.601l0.737,19.746l3.794-1.012l0.837-2.74l-0.381-15.217l-0.094-2.15l0.043-1.313h-0.002
	l-0.019-0.606l0.804-0.381l3.616-2.593l0.443-0.264l0.758-0.578l0.72,19.877l2.131,0.152l2.397-3.878l-0.378-15.215l-0.221-2.155
	l0.029-0.826l-0.141-0.742l-0.018-0.015l0.006-0.039l-0.062-0.286l0.667-10.172l-0.161-1.797l-0.193-0.423
	c-0.01-0.136,0.077-2.148,0.646-3.865C353.331,404.038,348.174,369.877,320.743,366.898z"/>
</svg>
